<?xml version="1.0" encoding="UTF-8"?>
<svg xmlns="http://www.w3.org/2000/svg" xmlns:xlink="http://www.w3.org/1999/xlink" width="504pt" height="504pt" viewBox="0 0 504 504" version="1.1">
<g id="surface790">
<rect x="0" y="0" width="504" height="504" style="fill:rgb(100%,100%,100%);fill-opacity:1;stroke:none;"/>
<path style="fill-rule:nonzero;fill:rgb(100%,100%,100%);fill-opacity:0.301961;stroke-width:1.5;stroke-linecap:round;stroke-linejoin:round;stroke:rgb(0%,0%,0%);stroke-opacity:0.301961;stroke-miterlimit:10;" d="M 294.632812 236.019531 C 294.632812 241.417969 286.535156 241.417969 286.535156 236.019531 C 286.535156 230.617188 294.632812 230.617188 294.632812 236.019531 "/>
<path style="fill-rule:nonzero;fill:rgb(100%,100%,100%);fill-opacity:0.301961;stroke-width:1.5;stroke-linecap:round;stroke-linejoin:round;stroke:rgb(0%,0%,0%);stroke-opacity:0.301961;stroke-miterlimit:10;" d="M 272.03125 213.417969 C 272.03125 218.816406 263.933594 218.816406 263.933594 213.417969 C 263.933594 208.015625 272.03125 208.015625 272.03125 213.417969 "/>
<path style="fill-rule:nonzero;fill:rgb(100%,100%,100%);fill-opacity:0.301961;stroke-width:1.5;stroke-linecap:round;stroke-linejoin:round;stroke:rgb(0%,0%,0%);stroke-opacity:0.301961;stroke-miterlimit:10;" d="M 240.066406 213.417969 C 240.066406 218.816406 231.96875 218.816406 231.96875 213.417969 C 231.96875 208.015625 240.066406 208.015625 240.066406 213.417969 "/>
<path style="fill-rule:nonzero;fill:rgb(50.196078%,50.196078%,100%);fill-opacity:1;stroke-width:1.5;stroke-linecap:round;stroke-linejoin:round;stroke:rgb(0%,0%,0%);stroke-opacity:1;stroke-miterlimit:10;" d="M 217.464844 236.019531 C 217.464844 241.417969 209.367188 241.417969 209.367188 236.019531 C 209.367188 230.617188 217.464844 230.617188 217.464844 236.019531 "/>
<path style="fill-rule:nonzero;fill:rgb(100%,100%,100%);fill-opacity:0.301961;stroke-width:1.5;stroke-linecap:round;stroke-linejoin:round;stroke:rgb(0%,0%,0%);stroke-opacity:0.301961;stroke-miterlimit:10;" d="M 364.496094 238.082031 C 364.496094 243.484375 356.394531 243.484375 356.394531 238.082031 C 356.394531 232.683594 364.496094 232.683594 364.496094 238.082031 "/>
<path style="fill-rule:nonzero;fill:rgb(100%,100%,100%);fill-opacity:0.301961;stroke-width:1.5;stroke-linecap:round;stroke-linejoin:round;stroke:rgb(0%,0%,0%);stroke-opacity:0.301961;stroke-miterlimit:10;" d="M 360.359375 219.234375 C 360.359375 224.636719 352.261719 224.636719 352.261719 219.234375 C 352.261719 213.835938 360.359375 213.835938 360.359375 219.234375 "/>
<path style="fill-rule:nonzero;fill:rgb(100%,100%,100%);fill-opacity:0.301961;stroke-width:1.5;stroke-linecap:round;stroke-linejoin:round;stroke:rgb(0%,0%,0%);stroke-opacity:0.301961;stroke-miterlimit:10;" d="M 352.976562 201.410156 C 352.976562 206.808594 344.875 206.808594 344.875 201.410156 C 344.875 196.007812 352.976562 196.007812 352.976562 201.410156 "/>
<path style="fill-rule:nonzero;fill:rgb(50.196078%,50.196078%,100%);fill-opacity:0.301961;stroke-width:1.5;stroke-linecap:round;stroke-linejoin:round;stroke:rgb(0%,0%,0%);stroke-opacity:0.301961;stroke-miterlimit:10;" d="M 342.574219 185.15625 C 342.574219 190.558594 334.472656 190.558594 334.472656 185.15625 C 334.472656 179.757812 342.574219 179.757812 342.574219 185.15625 "/>
<path style="fill-rule:nonzero;fill:rgb(100%,100%,100%);fill-opacity:0.301961;stroke-width:1.5;stroke-linecap:round;stroke-linejoin:round;stroke:rgb(0%,0%,0%);stroke-opacity:0.301961;stroke-miterlimit:10;" d="M 474.605469 245.023438 C 474.605469 250.425781 466.503906 250.425781 466.503906 245.023438 C 466.503906 239.625 474.605469 239.625 474.605469 245.023438 "/>
<path style="fill-rule:nonzero;fill:rgb(100%,100%,100%);fill-opacity:0.301961;stroke-width:1.5;stroke-linecap:round;stroke-linejoin:round;stroke:rgb(0%,0%,0%);stroke-opacity:0.301961;stroke-miterlimit:10;" d="M 474.085938 235.378906 C 474.085938 240.777344 465.984375 240.777344 465.984375 235.378906 C 465.984375 229.980469 474.085938 229.980469 474.085938 235.378906 "/>
<path style="fill-rule:nonzero;fill:rgb(100%,100%,100%);fill-opacity:0.301961;stroke-width:1.5;stroke-linecap:round;stroke-linejoin:round;stroke:rgb(0%,0%,0%);stroke-opacity:0.301961;stroke-miterlimit:10;" d="M 473.136719 225.765625 C 473.136719 231.164062 465.039062 231.164062 465.039062 225.765625 C 465.039062 220.367188 473.136719 220.367188 473.136719 225.765625 "/>
<path style="fill-rule:nonzero;fill:rgb(50.196078%,50.196078%,100%);fill-opacity:0.301961;stroke-width:1.5;stroke-linecap:round;stroke-linejoin:round;stroke:rgb(0%,0%,0%);stroke-opacity:0.301961;stroke-miterlimit:10;" d="M 471.765625 216.203125 C 471.765625 221.605469 463.667969 221.605469 463.667969 216.203125 C 463.667969 210.804688 471.765625 210.804688 471.765625 216.203125 "/>
<path style="fill:none;stroke-width:1.5;stroke-linecap:round;stroke-linejoin:round;stroke:rgb(0%,0%,0%);stroke-opacity:0.301961;stroke-miterlimit:10;" d="M 369.175781 238.632812 L 461.824219 244.472656 "/>
<path style="fill:none;stroke-width:1.5;stroke-linecap:round;stroke-linejoin:round;stroke:rgb(0%,0%,0%);stroke-opacity:0.301961;stroke-miterlimit:10;" d="M 369.191406 237.867188 L 461.289062 235.59375 "/>
<path style="fill:none;stroke-width:1.5;stroke-linecap:round;stroke-linejoin:round;stroke:rgb(0%,0%,0%);stroke-opacity:0.301961;stroke-miterlimit:10;" d="M 369.136719 237.097656 L 460.394531 226.75 "/>
<path style="fill:none;stroke-width:1.5;stroke-linecap:round;stroke-linejoin:round;stroke:rgb(0%,0%,0%);stroke-opacity:0.301961;stroke-miterlimit:10;" d="M 369.015625 236.335938 L 459.148438 217.953125 "/>
<path style="fill-rule:nonzero;fill:rgb(100%,100%,100%);fill-opacity:0.301961;stroke-width:1.5;stroke-linecap:round;stroke-linejoin:round;stroke:rgb(0%,0%,0%);stroke-opacity:0.301961;stroke-miterlimit:10;" d="M 469.046875 202.519531 C 469.046875 207.921875 460.945312 207.921875 460.945312 202.519531 C 460.945312 197.121094 469.046875 197.121094 469.046875 202.519531 "/>
<path style="fill-rule:nonzero;fill:rgb(100%,100%,100%);fill-opacity:0.301961;stroke-width:1.5;stroke-linecap:round;stroke-linejoin:round;stroke:rgb(0%,0%,0%);stroke-opacity:0.301961;stroke-miterlimit:10;" d="M 466.652344 193.160156 C 466.652344 198.5625 458.550781 198.5625 458.550781 193.160156 C 458.550781 187.761719 466.652344 187.761719 466.652344 193.160156 "/>
<path style="fill-rule:nonzero;fill:rgb(100%,100%,100%);fill-opacity:0.301961;stroke-width:1.5;stroke-linecap:round;stroke-linejoin:round;stroke:rgb(0%,0%,0%);stroke-opacity:0.301961;stroke-miterlimit:10;" d="M 463.847656 183.917969 C 463.847656 189.316406 455.746094 189.316406 455.746094 183.917969 C 455.746094 178.519531 463.847656 178.519531 463.847656 183.917969 "/>
<path style="fill-rule:nonzero;fill:rgb(50.196078%,50.196078%,100%);fill-opacity:0.301961;stroke-width:1.5;stroke-linecap:round;stroke-linejoin:round;stroke:rgb(0%,0%,0%);stroke-opacity:0.301961;stroke-miterlimit:10;" d="M 460.636719 174.808594 C 460.636719 180.207031 452.539062 180.207031 452.539062 174.808594 C 452.539062 169.40625 460.636719 169.40625 460.636719 174.808594 "/>
<path style="fill:none;stroke-width:1.5;stroke-linecap:round;stroke-linejoin:round;stroke:rgb(0%,0%,0%);stroke-opacity:0.301961;stroke-miterlimit:10;" d="M 364.957031 217.90625 L 456.351562 203.851562 "/>
<path style="fill:none;stroke-width:1.5;stroke-linecap:round;stroke-linejoin:round;stroke:rgb(0%,0%,0%);stroke-opacity:0.301961;stroke-miterlimit:10;" d="M 364.804688 217.152344 L 454.105469 195.246094 "/>
<path style="fill:none;stroke-width:1.5;stroke-linecap:round;stroke-linejoin:round;stroke:rgb(0%,0%,0%);stroke-opacity:0.301961;stroke-miterlimit:10;" d="M 364.589844 216.410156 L 451.519531 186.742188 "/>
<path style="fill:none;stroke-width:1.5;stroke-linecap:round;stroke-linejoin:round;stroke:rgb(0%,0%,0%);stroke-opacity:0.301961;stroke-miterlimit:10;" d="M 364.308594 215.691406 L 448.589844 178.351562 "/>
<path style="fill-rule:nonzero;fill:rgb(100%,100%,100%);fill-opacity:0.301961;stroke-width:1.5;stroke-linecap:round;stroke-linejoin:round;stroke:rgb(0%,0%,0%);stroke-opacity:0.301961;stroke-miterlimit:10;" d="M 455.300781 161.917969 C 455.300781 167.316406 447.199219 167.316406 447.199219 161.917969 C 447.199219 156.519531 455.300781 156.519531 455.300781 161.917969 "/>
<path style="fill-rule:nonzero;fill:rgb(100%,100%,100%);fill-opacity:0.301961;stroke-width:1.5;stroke-linecap:round;stroke-linejoin:round;stroke:rgb(0%,0%,0%);stroke-opacity:0.301961;stroke-miterlimit:10;" d="M 451.125 153.207031 C 451.125 158.605469 443.027344 158.605469 443.027344 153.207031 C 443.027344 147.804688 451.125 147.804688 451.125 153.207031 "/>
<path style="fill-rule:nonzero;fill:rgb(100%,100%,100%);fill-opacity:0.301961;stroke-width:1.5;stroke-linecap:round;stroke-linejoin:round;stroke:rgb(0%,0%,0%);stroke-opacity:0.301961;stroke-miterlimit:10;" d="M 446.574219 144.6875 C 446.574219 150.085938 438.472656 150.085938 438.472656 144.6875 C 438.472656 139.285156 446.574219 139.285156 446.574219 144.6875 "/>
<path style="fill-rule:nonzero;fill:rgb(50.196078%,50.196078%,100%);fill-opacity:0.301961;stroke-width:1.5;stroke-linecap:round;stroke-linejoin:round;stroke:rgb(0%,0%,0%);stroke-opacity:0.301961;stroke-miterlimit:10;" d="M 441.648438 136.378906 C 441.648438 141.777344 433.546875 141.777344 433.546875 136.378906 C 433.546875 130.976562 441.648438 130.976562 441.648438 136.378906 "/>
<path style="fill:none;stroke-width:1.5;stroke-linecap:round;stroke-linejoin:round;stroke:rgb(0%,0%,0%);stroke-opacity:0.301961;stroke-miterlimit:10;" d="M 357.085938 198.257812 L 443.089844 165.066406 "/>
<path style="fill:none;stroke-width:1.5;stroke-linecap:round;stroke-linejoin:round;stroke:rgb(0%,0%,0%);stroke-opacity:0.301961;stroke-miterlimit:10;" d="M 356.777344 197.554688 L 439.226562 157.0625 "/>
<path style="fill:none;stroke-width:1.5;stroke-linecap:round;stroke-linejoin:round;stroke:rgb(0%,0%,0%);stroke-opacity:0.301961;stroke-miterlimit:10;" d="M 356.40625 196.875 L 435.042969 149.21875 "/>
<path style="fill:none;stroke-width:1.5;stroke-linecap:round;stroke-linejoin:round;stroke:rgb(0%,0%,0%);stroke-opacity:0.301961;stroke-miterlimit:10;" d="M 355.980469 196.234375 L 430.542969 141.550781 "/>
<path style="fill-rule:nonzero;fill:rgb(100%,100%,100%);fill-opacity:0.301961;stroke-width:1.5;stroke-linecap:round;stroke-linejoin:round;stroke:rgb(0%,0%,0%);stroke-opacity:0.301961;stroke-miterlimit:10;" d="M 433.898438 124.777344 C 433.898438 130.175781 425.796875 130.175781 425.796875 124.777344 C 425.796875 119.378906 433.898438 119.378906 433.898438 124.777344 "/>
<path style="fill-rule:nonzero;fill:rgb(100%,100%,100%);fill-opacity:0.301961;stroke-width:1.5;stroke-linecap:round;stroke-linejoin:round;stroke:rgb(0%,0%,0%);stroke-opacity:0.301961;stroke-miterlimit:10;" d="M 428.105469 117.046875 C 428.105469 122.445312 420.003906 122.445312 420.003906 117.046875 C 420.003906 111.648438 428.105469 111.648438 428.105469 117.046875 "/>
<path style="fill-rule:nonzero;fill:rgb(100%,100%,100%);fill-opacity:0.301961;stroke-width:1.5;stroke-linecap:round;stroke-linejoin:round;stroke:rgb(0%,0%,0%);stroke-opacity:0.301961;stroke-miterlimit:10;" d="M 421.976562 109.578125 C 421.976562 114.980469 413.875 114.980469 413.875 109.578125 C 413.875 104.179688 421.976562 104.179688 421.976562 109.578125 "/>
<path style="fill-rule:nonzero;fill:rgb(50.196078%,50.196078%,100%);fill-opacity:0.301961;stroke-width:1.5;stroke-linecap:round;stroke-linejoin:round;stroke:rgb(0%,0%,0%);stroke-opacity:0.301961;stroke-miterlimit:10;" d="M 415.523438 102.390625 C 415.523438 107.789062 407.425781 107.789062 407.425781 102.390625 C 407.425781 96.992188 415.523438 96.992188 415.523438 102.390625 "/>
<path style="fill:none;stroke-width:1.5;stroke-linecap:round;stroke-linejoin:round;stroke:rgb(0%,0%,0%);stroke-opacity:0.301961;stroke-miterlimit:10;" d="M 345.820312 180.332031 L 422.550781 129.601562 "/>
<path style="fill:none;stroke-width:1.5;stroke-linecap:round;stroke-linejoin:round;stroke:rgb(0%,0%,0%);stroke-opacity:0.301961;stroke-miterlimit:10;" d="M 345.363281 179.707031 L 417.210938 122.496094 "/>
<path style="fill:none;stroke-width:1.5;stroke-linecap:round;stroke-linejoin:round;stroke:rgb(0%,0%,0%);stroke-opacity:0.301961;stroke-miterlimit:10;" d="M 344.859375 179.128906 L 411.589844 115.609375 "/>
<path style="fill:none;stroke-width:1.5;stroke-linecap:round;stroke-linejoin:round;stroke:rgb(0%,0%,0%);stroke-opacity:0.301961;stroke-miterlimit:10;" d="M 344.304688 178.597656 L 405.691406 108.953125 "/>
<path style="fill:none;stroke-width:1.5;stroke-linecap:round;stroke-linejoin:round;stroke:rgb(0%,0%,0%);stroke-opacity:0.301961;stroke-miterlimit:10;" d="M 299.328125 236.277344 L 351.703125 237.824219 "/>
<path style="fill:none;stroke-width:1.5;stroke-linecap:round;stroke-linejoin:round;stroke:rgb(0%,0%,0%);stroke-opacity:0.301961;stroke-miterlimit:10;" d="M 299.058594 233.855469 L 347.835938 221.398438 "/>
<path style="fill:none;stroke-width:1.5;stroke-linecap:round;stroke-linejoin:round;stroke:rgb(0%,0%,0%);stroke-opacity:0.301961;stroke-miterlimit:10;" d="M 298.105469 231.554688 L 341.402344 205.871094 "/>
<path style="fill:none;stroke-width:1.5;stroke-linecap:round;stroke-linejoin:round;stroke:rgb(0%,0%,0%);stroke-opacity:0.301961;stroke-miterlimit:10;" d="M 296.582031 229.652344 L 332.523438 191.523438 "/>
<path style="fill-rule:nonzero;fill:rgb(100%,100%,100%);fill-opacity:0.301961;stroke-width:1.5;stroke-linecap:round;stroke-linejoin:round;stroke:rgb(0%,0%,0%);stroke-opacity:0.301961;stroke-miterlimit:10;" d="M 322.890625 165.476562 C 322.890625 170.878906 314.792969 170.878906 314.792969 165.476562 C 314.792969 160.078125 322.890625 160.078125 322.890625 165.476562 "/>
<path style="fill-rule:nonzero;fill:rgb(100%,100%,100%);fill-opacity:0.301961;stroke-width:1.5;stroke-linecap:round;stroke-linejoin:round;stroke:rgb(0%,0%,0%);stroke-opacity:0.301961;stroke-miterlimit:10;" d="M 306.640625 155.074219 C 306.640625 160.472656 298.539062 160.472656 298.539062 155.074219 C 298.539062 149.675781 306.640625 149.675781 306.640625 155.074219 "/>
<path style="fill-rule:nonzero;fill:rgb(100%,100%,100%);fill-opacity:0.301961;stroke-width:1.5;stroke-linecap:round;stroke-linejoin:round;stroke:rgb(0%,0%,0%);stroke-opacity:0.301961;stroke-miterlimit:10;" d="M 288.8125 147.691406 C 288.8125 153.089844 280.714844 153.089844 280.714844 147.691406 C 280.714844 142.289062 288.8125 142.289062 288.8125 147.691406 "/>
<path style="fill-rule:nonzero;fill:rgb(50.196078%,50.196078%,100%);fill-opacity:0.301961;stroke-width:1.5;stroke-linecap:round;stroke-linejoin:round;stroke:rgb(0%,0%,0%);stroke-opacity:0.301961;stroke-miterlimit:10;" d="M 269.964844 143.554688 C 269.964844 148.953125 261.867188 148.953125 261.867188 143.554688 C 261.867188 138.15625 269.964844 138.15625 269.964844 143.554688 "/>
<path style="fill-rule:nonzero;fill:rgb(100%,100%,100%);fill-opacity:0.301961;stroke-width:1.5;stroke-linecap:round;stroke-linejoin:round;stroke:rgb(0%,0%,0%);stroke-opacity:0.301961;stroke-miterlimit:10;" d="M 405.660156 92.527344 C 405.660156 97.925781 397.558594 97.925781 397.558594 92.527344 C 397.558594 87.125 405.660156 87.125 405.660156 92.527344 "/>
<path style="fill-rule:nonzero;fill:rgb(100%,100%,100%);fill-opacity:0.301961;stroke-width:1.5;stroke-linecap:round;stroke-linejoin:round;stroke:rgb(0%,0%,0%);stroke-opacity:0.301961;stroke-miterlimit:10;" d="M 398.46875 86.074219 C 398.46875 91.472656 390.371094 91.472656 390.371094 86.074219 C 390.371094 80.671875 398.46875 80.671875 398.46875 86.074219 "/>
<path style="fill-rule:nonzero;fill:rgb(100%,100%,100%);fill-opacity:0.301961;stroke-width:1.5;stroke-linecap:round;stroke-linejoin:round;stroke:rgb(0%,0%,0%);stroke-opacity:0.301961;stroke-miterlimit:10;" d="M 391.003906 79.945312 C 391.003906 85.34375 382.902344 85.34375 382.902344 79.945312 C 382.902344 74.546875 391.003906 74.546875 391.003906 79.945312 "/>
<path style="fill-rule:nonzero;fill:rgb(50.196078%,50.196078%,100%);fill-opacity:0.301961;stroke-width:1.5;stroke-linecap:round;stroke-linejoin:round;stroke:rgb(0%,0%,0%);stroke-opacity:0.301961;stroke-miterlimit:10;" d="M 383.273438 74.152344 C 383.273438 79.554688 375.171875 79.554688 375.171875 74.152344 C 375.171875 68.753906 383.273438 68.753906 383.273438 74.152344 "/>
<path style="fill:none;stroke-width:1.5;stroke-linecap:round;stroke-linejoin:round;stroke:rgb(0%,0%,0%);stroke-opacity:0.301961;stroke-miterlimit:10;" d="M 325.402344 159.695312 L 395.046875 98.308594 "/>
<path style="fill:none;stroke-width:1.5;stroke-linecap:round;stroke-linejoin:round;stroke:rgb(0%,0%,0%);stroke-opacity:0.301961;stroke-miterlimit:10;" d="M 324.871094 159.140625 L 388.390625 92.410156 "/>
<path style="fill:none;stroke-width:1.5;stroke-linecap:round;stroke-linejoin:round;stroke:rgb(0%,0%,0%);stroke-opacity:0.301961;stroke-miterlimit:10;" d="M 324.292969 158.636719 L 381.503906 86.789062 "/>
<path style="fill:none;stroke-width:1.5;stroke-linecap:round;stroke-linejoin:round;stroke:rgb(0%,0%,0%);stroke-opacity:0.301961;stroke-miterlimit:10;" d="M 323.667969 158.179688 L 374.398438 81.449219 "/>
<path style="fill-rule:nonzero;fill:rgb(100%,100%,100%);fill-opacity:0.301961;stroke-width:1.5;stroke-linecap:round;stroke-linejoin:round;stroke:rgb(0%,0%,0%);stroke-opacity:0.301961;stroke-miterlimit:10;" d="M 371.671875 66.402344 C 371.671875 71.800781 363.574219 71.800781 363.574219 66.402344 C 363.574219 61.003906 371.671875 61.003906 371.671875 66.402344 "/>
<path style="fill-rule:nonzero;fill:rgb(100%,100%,100%);fill-opacity:0.301961;stroke-width:1.5;stroke-linecap:round;stroke-linejoin:round;stroke:rgb(0%,0%,0%);stroke-opacity:0.301961;stroke-miterlimit:10;" d="M 363.363281 61.476562 C 363.363281 66.878906 355.261719 66.878906 355.261719 61.476562 C 355.261719 56.078125 363.363281 56.078125 363.363281 61.476562 "/>
<path style="fill-rule:nonzero;fill:rgb(100%,100%,100%);fill-opacity:0.301961;stroke-width:1.5;stroke-linecap:round;stroke-linejoin:round;stroke:rgb(0%,0%,0%);stroke-opacity:0.301961;stroke-miterlimit:10;" d="M 354.84375 56.921875 C 354.84375 62.324219 346.742188 62.324219 346.742188 56.921875 C 346.742188 51.523438 354.84375 51.523438 354.84375 56.921875 "/>
<path style="fill-rule:nonzero;fill:rgb(50.196078%,50.196078%,100%);fill-opacity:0.301961;stroke-width:1.5;stroke-linecap:round;stroke-linejoin:round;stroke:rgb(0%,0%,0%);stroke-opacity:0.301961;stroke-miterlimit:10;" d="M 346.132812 52.75 C 346.132812 58.152344 338.03125 58.152344 338.03125 52.75 C 338.03125 47.351562 346.132812 47.351562 346.132812 52.75 "/>
<path style="fill:none;stroke-width:1.5;stroke-linecap:round;stroke-linejoin:round;stroke:rgb(0%,0%,0%);stroke-opacity:0.301961;stroke-miterlimit:10;" d="M 307.765625 148.019531 L 362.449219 73.457031 "/>
<path style="fill:none;stroke-width:1.5;stroke-linecap:round;stroke-linejoin:round;stroke:rgb(0%,0%,0%);stroke-opacity:0.301961;stroke-miterlimit:10;" d="M 307.125 147.59375 L 354.78125 68.957031 "/>
<path style="fill:none;stroke-width:1.5;stroke-linecap:round;stroke-linejoin:round;stroke:rgb(0%,0%,0%);stroke-opacity:0.301961;stroke-miterlimit:10;" d="M 306.445312 147.222656 L 346.9375 64.773438 "/>
<path style="fill:none;stroke-width:1.5;stroke-linecap:round;stroke-linejoin:round;stroke:rgb(0%,0%,0%);stroke-opacity:0.301961;stroke-miterlimit:10;" d="M 305.742188 146.914062 L 338.933594 60.910156 "/>
<path style="fill-rule:nonzero;fill:rgb(100%,100%,100%);fill-opacity:0.301961;stroke-width:1.5;stroke-linecap:round;stroke-linejoin:round;stroke:rgb(0%,0%,0%);stroke-opacity:0.301961;stroke-miterlimit:10;" d="M 333.242188 47.410156 C 333.242188 52.8125 325.144531 52.8125 325.144531 47.410156 C 325.144531 42.011719 333.242188 42.011719 333.242188 47.410156 "/>
<path style="fill-rule:nonzero;fill:rgb(100%,100%,100%);fill-opacity:0.301961;stroke-width:1.5;stroke-linecap:round;stroke-linejoin:round;stroke:rgb(0%,0%,0%);stroke-opacity:0.301961;stroke-miterlimit:10;" d="M 324.132812 44.203125 C 324.132812 49.601562 316.03125 49.601562 316.03125 44.203125 C 316.03125 38.800781 324.132812 38.800781 324.132812 44.203125 "/>
<path style="fill-rule:nonzero;fill:rgb(100%,100%,100%);fill-opacity:0.301961;stroke-width:1.5;stroke-linecap:round;stroke-linejoin:round;stroke:rgb(0%,0%,0%);stroke-opacity:0.301961;stroke-miterlimit:10;" d="M 314.886719 41.398438 C 314.886719 46.796875 306.789062 46.796875 306.789062 41.398438 C 306.789062 36 314.886719 36 314.886719 41.398438 "/>
<path style="fill-rule:nonzero;fill:rgb(50.196078%,50.196078%,100%);fill-opacity:0.301961;stroke-width:1.5;stroke-linecap:round;stroke-linejoin:round;stroke:rgb(0%,0%,0%);stroke-opacity:0.301961;stroke-miterlimit:10;" d="M 305.53125 39.003906 C 305.53125 44.40625 297.429688 44.40625 297.429688 39.003906 C 297.429688 33.605469 305.53125 33.605469 305.53125 39.003906 "/>
<path style="fill:none;stroke-width:1.5;stroke-linecap:round;stroke-linejoin:round;stroke:rgb(0%,0%,0%);stroke-opacity:0.301961;stroke-miterlimit:10;" d="M 288.308594 139.691406 L 325.648438 55.410156 "/>
<path style="fill:none;stroke-width:1.5;stroke-linecap:round;stroke-linejoin:round;stroke:rgb(0%,0%,0%);stroke-opacity:0.301961;stroke-miterlimit:10;" d="M 287.589844 139.410156 L 317.257812 52.480469 "/>
<path style="fill:none;stroke-width:1.5;stroke-linecap:round;stroke-linejoin:round;stroke:rgb(0%,0%,0%);stroke-opacity:0.301961;stroke-miterlimit:10;" d="M 286.847656 139.195312 L 308.753906 49.894531 "/>
<path style="fill:none;stroke-width:1.5;stroke-linecap:round;stroke-linejoin:round;stroke:rgb(0%,0%,0%);stroke-opacity:0.301961;stroke-miterlimit:10;" d="M 286.09375 139.042969 L 300.148438 47.648438 "/>
<path style="fill-rule:nonzero;fill:rgb(100%,100%,100%);fill-opacity:0.301961;stroke-width:1.5;stroke-linecap:round;stroke-linejoin:round;stroke:rgb(0%,0%,0%);stroke-opacity:0.301961;stroke-miterlimit:10;" d="M 291.847656 36.285156 C 291.847656 41.683594 283.746094 41.683594 283.746094 36.285156 C 283.746094 30.882812 291.847656 30.882812 291.847656 36.285156 "/>
<path style="fill-rule:nonzero;fill:rgb(100%,100%,100%);fill-opacity:0.301961;stroke-width:1.5;stroke-linecap:round;stroke-linejoin:round;stroke:rgb(0%,0%,0%);stroke-opacity:0.301961;stroke-miterlimit:10;" d="M 282.285156 34.914062 C 282.285156 40.3125 274.183594 40.3125 274.183594 34.914062 C 274.183594 29.511719 282.285156 29.511719 282.285156 34.914062 "/>
<path style="fill-rule:nonzero;fill:rgb(100%,100%,100%);fill-opacity:0.301961;stroke-width:1.5;stroke-linecap:round;stroke-linejoin:round;stroke:rgb(0%,0%,0%);stroke-opacity:0.301961;stroke-miterlimit:10;" d="M 272.671875 33.964844 C 272.671875 39.367188 264.570312 39.367188 264.570312 33.964844 C 264.570312 28.566406 272.671875 28.566406 272.671875 33.964844 "/>
<path style="fill-rule:nonzero;fill:rgb(50.196078%,50.196078%,100%);fill-opacity:0.301961;stroke-width:1.5;stroke-linecap:round;stroke-linejoin:round;stroke:rgb(0%,0%,0%);stroke-opacity:0.301961;stroke-miterlimit:10;" d="M 263.027344 33.445312 C 263.027344 38.84375 254.925781 38.84375 254.925781 33.445312 C 254.925781 28.042969 263.027344 28.042969 263.027344 33.445312 "/>
<path style="fill:none;stroke-width:1.5;stroke-linecap:round;stroke-linejoin:round;stroke:rgb(0%,0%,0%);stroke-opacity:0.301961;stroke-miterlimit:10;" d="M 267.664062 134.984375 L 286.046875 44.851562 "/>
<path style="fill:none;stroke-width:1.5;stroke-linecap:round;stroke-linejoin:round;stroke:rgb(0%,0%,0%);stroke-opacity:0.301961;stroke-miterlimit:10;" d="M 266.902344 134.863281 L 277.25 43.605469 "/>
<path style="fill:none;stroke-width:1.5;stroke-linecap:round;stroke-linejoin:round;stroke:rgb(0%,0%,0%);stroke-opacity:0.301961;stroke-miterlimit:10;" d="M 266.132812 134.808594 L 268.40625 42.710938 "/>
<path style="fill:none;stroke-width:1.5;stroke-linecap:round;stroke-linejoin:round;stroke:rgb(0%,0%,0%);stroke-opacity:0.301961;stroke-miterlimit:10;" d="M 265.367188 134.824219 L 259.527344 42.175781 "/>
<path style="fill:none;stroke-width:1.5;stroke-linecap:round;stroke-linejoin:round;stroke:rgb(0%,0%,0%);stroke-opacity:0.301961;stroke-miterlimit:10;" d="M 274.347656 207.417969 L 312.476562 171.476562 "/>
<path style="fill:none;stroke-width:1.5;stroke-linecap:round;stroke-linejoin:round;stroke:rgb(0%,0%,0%);stroke-opacity:0.301961;stroke-miterlimit:10;" d="M 272.445312 205.894531 L 298.128906 162.597656 "/>
<path style="fill:none;stroke-width:1.5;stroke-linecap:round;stroke-linejoin:round;stroke:rgb(0%,0%,0%);stroke-opacity:0.301961;stroke-miterlimit:10;" d="M 270.144531 204.941406 L 282.601562 156.164062 "/>
<path style="fill:none;stroke-width:1.5;stroke-linecap:round;stroke-linejoin:round;stroke:rgb(0%,0%,0%);stroke-opacity:0.301961;stroke-miterlimit:10;" d="M 267.722656 204.671875 L 266.175781 152.296875 "/>
<path style="fill-rule:nonzero;fill:rgb(100%,100%,100%);fill-opacity:0.301961;stroke-width:1.5;stroke-linecap:round;stroke-linejoin:round;stroke:rgb(0%,0%,0%);stroke-opacity:0.301961;stroke-miterlimit:10;" d="M 242.132812 143.554688 C 242.132812 148.953125 234.035156 148.953125 234.035156 143.554688 C 234.035156 138.15625 242.132812 138.15625 242.132812 143.554688 "/>
<path style="fill-rule:nonzero;fill:rgb(100%,100%,100%);fill-opacity:0.301961;stroke-width:1.5;stroke-linecap:round;stroke-linejoin:round;stroke:rgb(0%,0%,0%);stroke-opacity:0.301961;stroke-miterlimit:10;" d="M 223.285156 147.691406 C 223.285156 153.089844 215.1875 153.089844 215.1875 147.691406 C 215.1875 142.289062 223.285156 142.289062 223.285156 147.691406 "/>
<path style="fill-rule:nonzero;fill:rgb(100%,100%,100%);fill-opacity:0.301961;stroke-width:1.5;stroke-linecap:round;stroke-linejoin:round;stroke:rgb(0%,0%,0%);stroke-opacity:0.301961;stroke-miterlimit:10;" d="M 205.460938 155.074219 C 205.460938 160.472656 197.359375 160.472656 197.359375 155.074219 C 197.359375 149.675781 205.460938 149.675781 205.460938 155.074219 "/>
<path style="fill-rule:nonzero;fill:rgb(50.196078%,50.196078%,100%);fill-opacity:0.301961;stroke-width:1.5;stroke-linecap:round;stroke-linejoin:round;stroke:rgb(0%,0%,0%);stroke-opacity:0.301961;stroke-miterlimit:10;" d="M 189.207031 165.476562 C 189.207031 170.878906 181.109375 170.878906 181.109375 165.476562 C 181.109375 160.078125 189.207031 160.078125 189.207031 165.476562 "/>
<path style="fill-rule:nonzero;fill:rgb(100%,100%,100%);fill-opacity:0.301961;stroke-width:1.5;stroke-linecap:round;stroke-linejoin:round;stroke:rgb(0%,0%,0%);stroke-opacity:0.301961;stroke-miterlimit:10;" d="M 249.074219 33.445312 C 249.074219 38.84375 240.972656 38.84375 240.972656 33.445312 C 240.972656 28.042969 249.074219 28.042969 249.074219 33.445312 "/>
<path style="fill-rule:nonzero;fill:rgb(100%,100%,100%);fill-opacity:0.301961;stroke-width:1.5;stroke-linecap:round;stroke-linejoin:round;stroke:rgb(0%,0%,0%);stroke-opacity:0.301961;stroke-miterlimit:10;" d="M 239.429688 33.964844 C 239.429688 39.367188 231.328125 39.367188 231.328125 33.964844 C 231.328125 28.566406 239.429688 28.566406 239.429688 33.964844 "/>
<path style="fill-rule:nonzero;fill:rgb(100%,100%,100%);fill-opacity:0.301961;stroke-width:1.5;stroke-linecap:round;stroke-linejoin:round;stroke:rgb(0%,0%,0%);stroke-opacity:0.301961;stroke-miterlimit:10;" d="M 229.816406 34.914062 C 229.816406 40.3125 221.714844 40.3125 221.714844 34.914062 C 221.714844 29.511719 229.816406 29.511719 229.816406 34.914062 "/>
<path style="fill-rule:nonzero;fill:rgb(50.196078%,50.196078%,100%);fill-opacity:0.301961;stroke-width:1.5;stroke-linecap:round;stroke-linejoin:round;stroke:rgb(0%,0%,0%);stroke-opacity:0.301961;stroke-miterlimit:10;" d="M 220.253906 36.285156 C 220.253906 41.683594 212.152344 41.683594 212.152344 36.285156 C 212.152344 30.882812 220.253906 30.882812 220.253906 36.285156 "/>
<path style="fill:none;stroke-width:1.5;stroke-linecap:round;stroke-linejoin:round;stroke:rgb(0%,0%,0%);stroke-opacity:0.301961;stroke-miterlimit:10;" d="M 238.632812 134.824219 L 244.472656 42.175781 "/>
<path style="fill:none;stroke-width:1.5;stroke-linecap:round;stroke-linejoin:round;stroke:rgb(0%,0%,0%);stroke-opacity:0.301961;stroke-miterlimit:10;" d="M 237.867188 134.808594 L 235.59375 42.710938 "/>
<path style="fill:none;stroke-width:1.5;stroke-linecap:round;stroke-linejoin:round;stroke:rgb(0%,0%,0%);stroke-opacity:0.301961;stroke-miterlimit:10;" d="M 237.097656 134.863281 L 226.75 43.605469 "/>
<path style="fill:none;stroke-width:1.5;stroke-linecap:round;stroke-linejoin:round;stroke:rgb(0%,0%,0%);stroke-opacity:0.301961;stroke-miterlimit:10;" d="M 236.335938 134.984375 L 217.953125 44.851562 "/>
<path style="fill-rule:nonzero;fill:rgb(100%,100%,100%);fill-opacity:0.301961;stroke-width:1.5;stroke-linecap:round;stroke-linejoin:round;stroke:rgb(0%,0%,0%);stroke-opacity:0.301961;stroke-miterlimit:10;" d="M 206.570312 39.003906 C 206.570312 44.40625 198.46875 44.40625 198.46875 39.003906 C 198.46875 33.605469 206.570312 33.605469 206.570312 39.003906 "/>
<path style="fill-rule:nonzero;fill:rgb(100%,100%,100%);fill-opacity:0.301961;stroke-width:1.5;stroke-linecap:round;stroke-linejoin:round;stroke:rgb(0%,0%,0%);stroke-opacity:0.301961;stroke-miterlimit:10;" d="M 197.210938 41.398438 C 197.210938 46.796875 189.113281 46.796875 189.113281 41.398438 C 189.113281 36 197.210938 36 197.210938 41.398438 "/>
<path style="fill-rule:nonzero;fill:rgb(100%,100%,100%);fill-opacity:0.301961;stroke-width:1.5;stroke-linecap:round;stroke-linejoin:round;stroke:rgb(0%,0%,0%);stroke-opacity:0.301961;stroke-miterlimit:10;" d="M 187.96875 44.203125 C 187.96875 49.601562 179.867188 49.601562 179.867188 44.203125 C 179.867188 38.800781 187.96875 38.800781 187.96875 44.203125 "/>
<path style="fill-rule:nonzero;fill:rgb(50.196078%,50.196078%,100%);fill-opacity:0.301961;stroke-width:1.5;stroke-linecap:round;stroke-linejoin:round;stroke:rgb(0%,0%,0%);stroke-opacity:0.301961;stroke-miterlimit:10;" d="M 178.855469 47.410156 C 178.855469 52.8125 170.757812 52.8125 170.757812 47.410156 C 170.757812 42.011719 178.855469 42.011719 178.855469 47.410156 "/>
<path style="fill:none;stroke-width:1.5;stroke-linecap:round;stroke-linejoin:round;stroke:rgb(0%,0%,0%);stroke-opacity:0.301961;stroke-miterlimit:10;" d="M 217.90625 139.042969 L 203.851562 47.648438 "/>
<path style="fill:none;stroke-width:1.5;stroke-linecap:round;stroke-linejoin:round;stroke:rgb(0%,0%,0%);stroke-opacity:0.301961;stroke-miterlimit:10;" d="M 217.152344 139.195312 L 195.246094 49.894531 "/>
<path style="fill:none;stroke-width:1.5;stroke-linecap:round;stroke-linejoin:round;stroke:rgb(0%,0%,0%);stroke-opacity:0.301961;stroke-miterlimit:10;" d="M 216.410156 139.410156 L 186.742188 52.480469 "/>
<path style="fill:none;stroke-width:1.5;stroke-linecap:round;stroke-linejoin:round;stroke:rgb(0%,0%,0%);stroke-opacity:0.301961;stroke-miterlimit:10;" d="M 215.691406 139.691406 L 178.351562 55.410156 "/>
<path style="fill-rule:nonzero;fill:rgb(100%,100%,100%);fill-opacity:0.301961;stroke-width:1.5;stroke-linecap:round;stroke-linejoin:round;stroke:rgb(0%,0%,0%);stroke-opacity:0.301961;stroke-miterlimit:10;" d="M 165.96875 52.75 C 165.96875 58.152344 157.867188 58.152344 157.867188 52.75 C 157.867188 47.351562 165.96875 47.351562 165.96875 52.75 "/>
<path style="fill-rule:nonzero;fill:rgb(100%,100%,100%);fill-opacity:0.301961;stroke-width:1.5;stroke-linecap:round;stroke-linejoin:round;stroke:rgb(0%,0%,0%);stroke-opacity:0.301961;stroke-miterlimit:10;" d="M 157.257812 56.921875 C 157.257812 62.324219 149.15625 62.324219 149.15625 56.921875 C 149.15625 51.523438 157.257812 51.523438 157.257812 56.921875 "/>
<path style="fill-rule:nonzero;fill:rgb(100%,100%,100%);fill-opacity:0.301961;stroke-width:1.5;stroke-linecap:round;stroke-linejoin:round;stroke:rgb(0%,0%,0%);stroke-opacity:0.301961;stroke-miterlimit:10;" d="M 148.738281 61.476562 C 148.738281 66.878906 140.636719 66.878906 140.636719 61.476562 C 140.636719 56.078125 148.738281 56.078125 148.738281 61.476562 "/>
<path style="fill-rule:nonzero;fill:rgb(50.196078%,50.196078%,100%);fill-opacity:0.301961;stroke-width:1.5;stroke-linecap:round;stroke-linejoin:round;stroke:rgb(0%,0%,0%);stroke-opacity:0.301961;stroke-miterlimit:10;" d="M 140.425781 66.402344 C 140.425781 71.800781 132.328125 71.800781 132.328125 66.402344 C 132.328125 61.003906 140.425781 61.003906 140.425781 66.402344 "/>
<path style="fill:none;stroke-width:1.5;stroke-linecap:round;stroke-linejoin:round;stroke:rgb(0%,0%,0%);stroke-opacity:0.301961;stroke-miterlimit:10;" d="M 198.257812 146.914062 L 165.066406 60.910156 "/>
<path style="fill:none;stroke-width:1.5;stroke-linecap:round;stroke-linejoin:round;stroke:rgb(0%,0%,0%);stroke-opacity:0.301961;stroke-miterlimit:10;" d="M 197.554688 147.222656 L 157.0625 64.773438 "/>
<path style="fill:none;stroke-width:1.5;stroke-linecap:round;stroke-linejoin:round;stroke:rgb(0%,0%,0%);stroke-opacity:0.301961;stroke-miterlimit:10;" d="M 196.875 147.59375 L 149.21875 68.957031 "/>
<path style="fill:none;stroke-width:1.5;stroke-linecap:round;stroke-linejoin:round;stroke:rgb(0%,0%,0%);stroke-opacity:0.301961;stroke-miterlimit:10;" d="M 196.234375 148.019531 L 141.550781 73.457031 "/>
<path style="fill-rule:nonzero;fill:rgb(100%,100%,100%);fill-opacity:0.301961;stroke-width:1.5;stroke-linecap:round;stroke-linejoin:round;stroke:rgb(0%,0%,0%);stroke-opacity:0.301961;stroke-miterlimit:10;" d="M 128.828125 74.152344 C 128.828125 79.554688 120.726562 79.554688 120.726562 74.152344 C 120.726562 68.753906 128.828125 68.753906 128.828125 74.152344 "/>
<path style="fill-rule:nonzero;fill:rgb(100%,100%,100%);fill-opacity:0.301961;stroke-width:1.5;stroke-linecap:round;stroke-linejoin:round;stroke:rgb(0%,0%,0%);stroke-opacity:0.301961;stroke-miterlimit:10;" d="M 121.097656 79.945312 C 121.097656 85.34375 112.996094 85.34375 112.996094 79.945312 C 112.996094 74.546875 121.097656 74.546875 121.097656 79.945312 "/>
<path style="fill-rule:nonzero;fill:rgb(100%,100%,100%);fill-opacity:0.301961;stroke-width:1.5;stroke-linecap:round;stroke-linejoin:round;stroke:rgb(0%,0%,0%);stroke-opacity:0.301961;stroke-miterlimit:10;" d="M 113.628906 86.074219 C 113.628906 91.472656 105.53125 91.472656 105.53125 86.074219 C 105.53125 80.671875 113.628906 80.671875 113.628906 86.074219 "/>
<path style="fill-rule:nonzero;fill:rgb(50.196078%,50.196078%,100%);fill-opacity:0.301961;stroke-width:1.5;stroke-linecap:round;stroke-linejoin:round;stroke:rgb(0%,0%,0%);stroke-opacity:0.301961;stroke-miterlimit:10;" d="M 106.441406 92.527344 C 106.441406 97.925781 98.339844 97.925781 98.339844 92.527344 C 98.339844 87.125 106.441406 87.125 106.441406 92.527344 "/>
<path style="fill:none;stroke-width:1.5;stroke-linecap:round;stroke-linejoin:round;stroke:rgb(0%,0%,0%);stroke-opacity:0.301961;stroke-miterlimit:10;" d="M 180.332031 158.179688 L 129.601562 81.449219 "/>
<path style="fill:none;stroke-width:1.5;stroke-linecap:round;stroke-linejoin:round;stroke:rgb(0%,0%,0%);stroke-opacity:0.301961;stroke-miterlimit:10;" d="M 179.707031 158.636719 L 122.496094 86.789062 "/>
<path style="fill:none;stroke-width:1.5;stroke-linecap:round;stroke-linejoin:round;stroke:rgb(0%,0%,0%);stroke-opacity:0.301961;stroke-miterlimit:10;" d="M 179.128906 159.140625 L 115.609375 92.410156 "/>
<path style="fill:none;stroke-width:1.5;stroke-linecap:round;stroke-linejoin:round;stroke:rgb(0%,0%,0%);stroke-opacity:0.301961;stroke-miterlimit:10;" d="M 178.597656 159.695312 L 108.953125 98.308594 "/>
<path style="fill:none;stroke-width:1.5;stroke-linecap:round;stroke-linejoin:round;stroke:rgb(0%,0%,0%);stroke-opacity:0.301961;stroke-miterlimit:10;" d="M 236.277344 204.671875 L 237.824219 152.296875 "/>
<path style="fill:none;stroke-width:1.5;stroke-linecap:round;stroke-linejoin:round;stroke:rgb(0%,0%,0%);stroke-opacity:0.301961;stroke-miterlimit:10;" d="M 233.855469 204.941406 L 221.398438 156.164062 "/>
<path style="fill:none;stroke-width:1.5;stroke-linecap:round;stroke-linejoin:round;stroke:rgb(0%,0%,0%);stroke-opacity:0.301961;stroke-miterlimit:10;" d="M 231.554688 205.894531 L 205.871094 162.597656 "/>
<path style="fill:none;stroke-width:1.5;stroke-linecap:round;stroke-linejoin:round;stroke:rgb(0%,0%,0%);stroke-opacity:0.301961;stroke-miterlimit:10;" d="M 229.652344 207.417969 L 191.523438 171.476562 "/>
<path style="fill-rule:nonzero;fill:rgb(100%,100%,100%);fill-opacity:1;stroke-width:1.5;stroke-linecap:round;stroke-linejoin:round;stroke:rgb(0%,0%,0%);stroke-opacity:1;stroke-miterlimit:10;" d="M 169.527344 185.15625 C 169.527344 190.558594 161.425781 190.558594 161.425781 185.15625 C 161.425781 179.757812 169.527344 179.757812 169.527344 185.15625 "/>
<path style="fill-rule:nonzero;fill:rgb(100%,100%,100%);fill-opacity:1;stroke-width:1.5;stroke-linecap:round;stroke-linejoin:round;stroke:rgb(0%,0%,0%);stroke-opacity:1;stroke-miterlimit:10;" d="M 159.125 201.410156 C 159.125 206.808594 151.023438 206.808594 151.023438 201.410156 C 151.023438 196.007812 159.125 196.007812 159.125 201.410156 "/>
<path style="fill-rule:nonzero;fill:rgb(100%,100%,100%);fill-opacity:1;stroke-width:1.5;stroke-linecap:round;stroke-linejoin:round;stroke:rgb(0%,0%,0%);stroke-opacity:1;stroke-miterlimit:10;" d="M 151.738281 219.234375 C 151.738281 224.636719 143.640625 224.636719 143.640625 219.234375 C 143.640625 213.835938 151.738281 213.835938 151.738281 219.234375 "/>
<path style="fill-rule:nonzero;fill:rgb(50.196078%,50.196078%,100%);fill-opacity:0.301961;stroke-width:1.5;stroke-linecap:round;stroke-linejoin:round;stroke:rgb(0%,0%,0%);stroke-opacity:0.301961;stroke-miterlimit:10;" d="M 147.605469 238.082031 C 147.605469 243.484375 139.503906 243.484375 139.503906 238.082031 C 139.503906 232.683594 147.605469 232.683594 147.605469 238.082031 "/>
<path style="fill-rule:nonzero;fill:rgb(100%,100%,100%);fill-opacity:0.301961;stroke-width:1.5;stroke-linecap:round;stroke-linejoin:round;stroke:rgb(0%,0%,0%);stroke-opacity:0.301961;stroke-miterlimit:10;" d="M 96.574219 102.390625 C 96.574219 107.789062 88.476562 107.789062 88.476562 102.390625 C 88.476562 96.992188 96.574219 96.992188 96.574219 102.390625 "/>
<path style="fill-rule:nonzero;fill:rgb(100%,100%,100%);fill-opacity:0.301961;stroke-width:1.5;stroke-linecap:round;stroke-linejoin:round;stroke:rgb(0%,0%,0%);stroke-opacity:0.301961;stroke-miterlimit:10;" d="M 90.125 109.578125 C 90.125 114.980469 82.023438 114.980469 82.023438 109.578125 C 82.023438 104.179688 90.125 104.179688 90.125 109.578125 "/>
<path style="fill-rule:nonzero;fill:rgb(100%,100%,100%);fill-opacity:0.301961;stroke-width:1.5;stroke-linecap:round;stroke-linejoin:round;stroke:rgb(0%,0%,0%);stroke-opacity:0.301961;stroke-miterlimit:10;" d="M 83.996094 117.046875 C 83.996094 122.445312 75.894531 122.445312 75.894531 117.046875 C 75.894531 111.648438 83.996094 111.648438 83.996094 117.046875 "/>
<path style="fill-rule:nonzero;fill:rgb(50.196078%,50.196078%,100%);fill-opacity:1;stroke-width:1.5;stroke-linecap:round;stroke-linejoin:round;stroke:rgb(0%,0%,0%);stroke-opacity:1;stroke-miterlimit:10;" d="M 78.203125 124.777344 C 78.203125 130.175781 70.101562 130.175781 70.101562 124.777344 C 70.101562 119.378906 78.203125 119.378906 78.203125 124.777344 "/>
<path style="fill:none;stroke-width:1.5;stroke-linecap:round;stroke-linejoin:round;stroke:rgb(0%,0%,0%);stroke-opacity:0.301961;stroke-miterlimit:10;" d="M 159.695312 178.597656 L 98.308594 108.953125 "/>
<path style="fill:none;stroke-width:1.5;stroke-linecap:round;stroke-linejoin:round;stroke:rgb(0%,0%,0%);stroke-opacity:0.301961;stroke-miterlimit:10;" d="M 159.140625 179.128906 L 92.410156 115.609375 "/>
<path style="fill:none;stroke-width:1.5;stroke-linecap:round;stroke-linejoin:round;stroke:rgb(0%,0%,0%);stroke-opacity:0.301961;stroke-miterlimit:10;" d="M 158.636719 179.707031 L 86.789062 122.496094 "/>
<path style="fill:none;stroke-width:1.5;stroke-linecap:round;stroke-linejoin:round;stroke:rgb(0%,0%,0%);stroke-opacity:1;stroke-miterlimit:10;" d="M 158.179688 180.332031 L 81.449219 129.601562 "/>
<path style="fill-rule:nonzero;fill:rgb(100%,100%,100%);fill-opacity:0.301961;stroke-width:1.5;stroke-linecap:round;stroke-linejoin:round;stroke:rgb(0%,0%,0%);stroke-opacity:0.301961;stroke-miterlimit:10;" d="M 70.453125 136.378906 C 70.453125 141.777344 62.351562 141.777344 62.351562 136.378906 C 62.351562 130.976562 70.453125 130.976562 70.453125 136.378906 "/>
<path style="fill-rule:nonzero;fill:rgb(100%,100%,100%);fill-opacity:0.301961;stroke-width:1.5;stroke-linecap:round;stroke-linejoin:round;stroke:rgb(0%,0%,0%);stroke-opacity:0.301961;stroke-miterlimit:10;" d="M 65.527344 144.6875 C 65.527344 150.085938 57.425781 150.085938 57.425781 144.6875 C 57.425781 139.285156 65.527344 139.285156 65.527344 144.6875 "/>
<path style="fill-rule:nonzero;fill:rgb(100%,100%,100%);fill-opacity:0.301961;stroke-width:1.5;stroke-linecap:round;stroke-linejoin:round;stroke:rgb(0%,0%,0%);stroke-opacity:0.301961;stroke-miterlimit:10;" d="M 60.972656 153.207031 C 60.972656 158.605469 52.875 158.605469 52.875 153.207031 C 52.875 147.804688 60.972656 147.804688 60.972656 153.207031 "/>
<path style="fill-rule:nonzero;fill:rgb(50.196078%,50.196078%,100%);fill-opacity:1;stroke-width:1.5;stroke-linecap:round;stroke-linejoin:round;stroke:rgb(0%,0%,0%);stroke-opacity:1;stroke-miterlimit:10;" d="M 56.800781 161.917969 C 56.800781 167.316406 48.699219 167.316406 48.699219 161.917969 C 48.699219 156.519531 56.800781 156.519531 56.800781 161.917969 "/>
<path style="fill:none;stroke-width:1.5;stroke-linecap:round;stroke-linejoin:round;stroke:rgb(0%,0%,0%);stroke-opacity:0.301961;stroke-miterlimit:10;" d="M 148.019531 196.234375 L 73.457031 141.550781 "/>
<path style="fill:none;stroke-width:1.5;stroke-linecap:round;stroke-linejoin:round;stroke:rgb(0%,0%,0%);stroke-opacity:0.301961;stroke-miterlimit:10;" d="M 147.59375 196.875 L 68.957031 149.21875 "/>
<path style="fill:none;stroke-width:1.5;stroke-linecap:round;stroke-linejoin:round;stroke:rgb(0%,0%,0%);stroke-opacity:0.301961;stroke-miterlimit:10;" d="M 147.222656 197.554688 L 64.773438 157.0625 "/>
<path style="fill:none;stroke-width:1.5;stroke-linecap:round;stroke-linejoin:round;stroke:rgb(0%,0%,0%);stroke-opacity:1;stroke-miterlimit:10;" d="M 146.914062 198.257812 L 60.910156 165.066406 "/>
<path style="fill-rule:nonzero;fill:rgb(100%,100%,100%);fill-opacity:0.301961;stroke-width:1.5;stroke-linecap:round;stroke-linejoin:round;stroke:rgb(0%,0%,0%);stroke-opacity:0.301961;stroke-miterlimit:10;" d="M 51.460938 174.808594 C 51.460938 180.207031 43.363281 180.207031 43.363281 174.808594 C 43.363281 169.40625 51.460938 169.40625 51.460938 174.808594 "/>
<path style="fill-rule:nonzero;fill:rgb(100%,100%,100%);fill-opacity:0.301961;stroke-width:1.5;stroke-linecap:round;stroke-linejoin:round;stroke:rgb(0%,0%,0%);stroke-opacity:0.301961;stroke-miterlimit:10;" d="M 48.253906 183.917969 C 48.253906 189.316406 40.152344 189.316406 40.152344 183.917969 C 40.152344 178.519531 48.253906 178.519531 48.253906 183.917969 "/>
<path style="fill-rule:nonzero;fill:rgb(100%,100%,100%);fill-opacity:0.301961;stroke-width:1.5;stroke-linecap:round;stroke-linejoin:round;stroke:rgb(0%,0%,0%);stroke-opacity:0.301961;stroke-miterlimit:10;" d="M 45.449219 193.160156 C 45.449219 198.5625 37.347656 198.5625 37.347656 193.160156 C 37.347656 187.761719 45.449219 187.761719 45.449219 193.160156 "/>
<path style="fill-rule:nonzero;fill:rgb(50.196078%,50.196078%,100%);fill-opacity:1;stroke-width:1.5;stroke-linecap:round;stroke-linejoin:round;stroke:rgb(0%,0%,0%);stroke-opacity:1;stroke-miterlimit:10;" d="M 43.054688 202.519531 C 43.054688 207.921875 34.953125 207.921875 34.953125 202.519531 C 34.953125 197.121094 43.054688 197.121094 43.054688 202.519531 "/>
<path style="fill:none;stroke-width:1.5;stroke-linecap:round;stroke-linejoin:round;stroke:rgb(0%,0%,0%);stroke-opacity:0.301961;stroke-miterlimit:10;" d="M 139.691406 215.691406 L 55.410156 178.351562 "/>
<path style="fill:none;stroke-width:1.5;stroke-linecap:round;stroke-linejoin:round;stroke:rgb(0%,0%,0%);stroke-opacity:0.301961;stroke-miterlimit:10;" d="M 139.410156 216.410156 L 52.480469 186.742188 "/>
<path style="fill:none;stroke-width:1.5;stroke-linecap:round;stroke-linejoin:round;stroke:rgb(0%,0%,0%);stroke-opacity:0.301961;stroke-miterlimit:10;" d="M 139.195312 217.152344 L 49.894531 195.246094 "/>
<path style="fill:none;stroke-width:1.5;stroke-linecap:round;stroke-linejoin:round;stroke:rgb(0%,0%,0%);stroke-opacity:1;stroke-miterlimit:10;" d="M 139.042969 217.90625 L 47.648438 203.851562 "/>
<path style="fill-rule:nonzero;fill:rgb(100%,100%,100%);fill-opacity:0.301961;stroke-width:1.5;stroke-linecap:round;stroke-linejoin:round;stroke:rgb(0%,0%,0%);stroke-opacity:0.301961;stroke-miterlimit:10;" d="M 40.332031 216.203125 C 40.332031 221.605469 32.234375 221.605469 32.234375 216.203125 C 32.234375 210.804688 40.332031 210.804688 40.332031 216.203125 "/>
<path style="fill-rule:nonzero;fill:rgb(100%,100%,100%);fill-opacity:0.301961;stroke-width:1.5;stroke-linecap:round;stroke-linejoin:round;stroke:rgb(0%,0%,0%);stroke-opacity:0.301961;stroke-miterlimit:10;" d="M 38.960938 225.765625 C 38.960938 231.164062 30.863281 231.164062 30.863281 225.765625 C 30.863281 220.367188 38.960938 220.367188 38.960938 225.765625 "/>
<path style="fill-rule:nonzero;fill:rgb(100%,100%,100%);fill-opacity:0.301961;stroke-width:1.5;stroke-linecap:round;stroke-linejoin:round;stroke:rgb(0%,0%,0%);stroke-opacity:0.301961;stroke-miterlimit:10;" d="M 38.015625 235.378906 C 38.015625 240.777344 29.914062 240.777344 29.914062 235.378906 C 29.914062 229.980469 38.015625 229.980469 38.015625 235.378906 "/>
<path style="fill-rule:nonzero;fill:rgb(50.196078%,50.196078%,100%);fill-opacity:0.301961;stroke-width:1.5;stroke-linecap:round;stroke-linejoin:round;stroke:rgb(0%,0%,0%);stroke-opacity:0.301961;stroke-miterlimit:10;" d="M 37.496094 245.023438 C 37.496094 250.425781 29.394531 250.425781 29.394531 245.023438 C 29.394531 239.625 37.496094 239.625 37.496094 245.023438 "/>
<path style="fill:none;stroke-width:1.5;stroke-linecap:round;stroke-linejoin:round;stroke:rgb(0%,0%,0%);stroke-opacity:0.301961;stroke-miterlimit:10;" d="M 134.984375 236.335938 L 44.851562 217.953125 "/>
<path style="fill:none;stroke-width:1.5;stroke-linecap:round;stroke-linejoin:round;stroke:rgb(0%,0%,0%);stroke-opacity:0.301961;stroke-miterlimit:10;" d="M 134.863281 237.097656 L 43.605469 226.75 "/>
<path style="fill:none;stroke-width:1.5;stroke-linecap:round;stroke-linejoin:round;stroke:rgb(0%,0%,0%);stroke-opacity:0.301961;stroke-miterlimit:10;" d="M 134.808594 237.867188 L 42.710938 235.59375 "/>
<path style="fill:none;stroke-width:1.5;stroke-linecap:round;stroke-linejoin:round;stroke:rgb(0%,0%,0%);stroke-opacity:0.301961;stroke-miterlimit:10;" d="M 134.824219 238.632812 L 42.175781 244.472656 "/>
<path style="fill:none;stroke-width:1.5;stroke-linecap:round;stroke-linejoin:round;stroke:rgb(0%,0%,0%);stroke-opacity:1;stroke-miterlimit:10;" d="M 207.417969 229.652344 L 171.476562 191.523438 "/>
<path style="fill:none;stroke-width:1.5;stroke-linecap:round;stroke-linejoin:round;stroke:rgb(0%,0%,0%);stroke-opacity:1;stroke-miterlimit:10;" d="M 205.894531 231.554688 L 162.597656 205.871094 "/>
<path style="fill:none;stroke-width:1.5;stroke-linecap:round;stroke-linejoin:round;stroke:rgb(0%,0%,0%);stroke-opacity:1;stroke-miterlimit:10;" d="M 204.941406 233.855469 L 156.164062 221.398438 "/>
<path style="fill:none;stroke-width:1.5;stroke-linecap:round;stroke-linejoin:round;stroke:rgb(0%,0%,0%);stroke-opacity:0.301961;stroke-miterlimit:10;" d="M 204.671875 236.277344 L 152.296875 237.824219 "/>
<path style="fill:none;stroke-width:1.5;stroke-linecap:round;stroke-linejoin:round;stroke:rgb(0%,0%,0%);stroke-opacity:0.301961;stroke-miterlimit:10;" d="M 260.082031 248.652344 L 282.503906 239.367188 "/>
<path style="fill:none;stroke-width:1.5;stroke-linecap:round;stroke-linejoin:round;stroke:rgb(0%,0%,0%);stroke-opacity:0.301961;stroke-miterlimit:10;" d="M 255.347656 243.917969 L 264.632812 221.496094 "/>
<path style="fill:none;stroke-width:1.5;stroke-linecap:round;stroke-linejoin:round;stroke:rgb(0%,0%,0%);stroke-opacity:0.301961;stroke-miterlimit:10;" d="M 248.652344 243.917969 L 239.367188 221.496094 "/>
<path style="fill:none;stroke-width:1.5;stroke-linecap:round;stroke-linejoin:round;stroke:rgb(0%,0%,0%);stroke-opacity:1;stroke-miterlimit:10;" d="M 243.917969 248.652344 L 221.496094 239.367188 "/>
</g>
</svg>
