<?xml version="1.0" encoding="UTF-8"?>
<svg xmlns="http://www.w3.org/2000/svg" xmlns:xlink="http://www.w3.org/1999/xlink" width="504pt" height="504pt" viewBox="0 0 504 504" version="1.1">
<g id="surface4">
<rect x="0" y="0" width="504" height="504" style="fill:rgb(100%,100%,100%);fill-opacity:1;stroke:none;"/>
<path style="fill-rule:nonzero;fill:rgb(100%,100%,100%);fill-opacity:1;stroke-width:1.5;stroke-linecap:round;stroke-linejoin:round;stroke:rgb(0%,0%,0%);stroke-opacity:1;stroke-miterlimit:10;" d="M 294.632812 236.019531 C 294.632812 241.417969 286.535156 241.417969 286.535156 236.019531 C 286.535156 230.617188 294.632812 230.617188 294.632812 236.019531 "/>
<path style="fill-rule:nonzero;fill:rgb(100%,100%,100%);fill-opacity:1;stroke-width:1.5;stroke-linecap:round;stroke-linejoin:round;stroke:rgb(0%,0%,0%);stroke-opacity:1;stroke-miterlimit:10;" d="M 272.03125 213.417969 C 272.03125 218.816406 263.933594 218.816406 263.933594 213.417969 C 263.933594 208.015625 272.03125 208.015625 272.03125 213.417969 "/>
<path style="fill-rule:nonzero;fill:rgb(100%,100%,100%);fill-opacity:1;stroke-width:1.5;stroke-linecap:round;stroke-linejoin:round;stroke:rgb(0%,0%,0%);stroke-opacity:1;stroke-miterlimit:10;" d="M 240.066406 213.417969 C 240.066406 218.816406 231.96875 218.816406 231.96875 213.417969 C 231.96875 208.015625 240.066406 208.015625 240.066406 213.417969 "/>
<path style="fill-rule:nonzero;fill:rgb(50.196078%,50.196078%,100%);fill-opacity:1;stroke-width:1.5;stroke-linecap:round;stroke-linejoin:round;stroke:rgb(0%,0%,0%);stroke-opacity:1;stroke-miterlimit:10;" d="M 217.464844 236.019531 C 217.464844 241.417969 209.367188 241.417969 209.367188 236.019531 C 209.367188 230.617188 217.464844 230.617188 217.464844 236.019531 "/>
<path style="fill-rule:nonzero;fill:rgb(100%,100%,100%);fill-opacity:1;stroke-width:1.5;stroke-linecap:round;stroke-linejoin:round;stroke:rgb(0%,0%,0%);stroke-opacity:1;stroke-miterlimit:10;" d="M 364.496094 238.082031 C 364.496094 243.484375 356.394531 243.484375 356.394531 238.082031 C 356.394531 232.683594 364.496094 232.683594 364.496094 238.082031 "/>
<path style="fill-rule:nonzero;fill:rgb(100%,100%,100%);fill-opacity:1;stroke-width:1.5;stroke-linecap:round;stroke-linejoin:round;stroke:rgb(0%,0%,0%);stroke-opacity:1;stroke-miterlimit:10;" d="M 360.359375 219.234375 C 360.359375 224.636719 352.261719 224.636719 352.261719 219.234375 C 352.261719 213.835938 360.359375 213.835938 360.359375 219.234375 "/>
<path style="fill-rule:nonzero;fill:rgb(100%,100%,100%);fill-opacity:1;stroke-width:1.5;stroke-linecap:round;stroke-linejoin:round;stroke:rgb(0%,0%,0%);stroke-opacity:1;stroke-miterlimit:10;" d="M 352.976562 201.410156 C 352.976562 206.808594 344.875 206.808594 344.875 201.410156 C 344.875 196.007812 352.976562 196.007812 352.976562 201.410156 "/>
<path style="fill-rule:nonzero;fill:rgb(50.196078%,50.196078%,100%);fill-opacity:1;stroke-width:1.5;stroke-linecap:round;stroke-linejoin:round;stroke:rgb(0%,0%,0%);stroke-opacity:1;stroke-miterlimit:10;" d="M 342.574219 185.15625 C 342.574219 190.558594 334.472656 190.558594 334.472656 185.15625 C 334.472656 179.757812 342.574219 179.757812 342.574219 185.15625 "/>
<path style="fill:none;stroke-width:1.5;stroke-linecap:round;stroke-linejoin:round;stroke:rgb(0%,0%,0%);stroke-opacity:1;stroke-miterlimit:10;" d="M 299.328125 236.277344 L 351.703125 237.824219 "/>
<path style="fill:none;stroke-width:1.5;stroke-linecap:round;stroke-linejoin:round;stroke:rgb(0%,0%,0%);stroke-opacity:1;stroke-miterlimit:10;" d="M 299.058594 233.855469 L 347.835938 221.398438 "/>
<path style="fill:none;stroke-width:1.5;stroke-linecap:round;stroke-linejoin:round;stroke:rgb(0%,0%,0%);stroke-opacity:1;stroke-miterlimit:10;" d="M 298.105469 231.554688 L 341.402344 205.871094 "/>
<path style="fill:none;stroke-width:1.5;stroke-linecap:round;stroke-linejoin:round;stroke:rgb(0%,0%,0%);stroke-opacity:1;stroke-miterlimit:10;" d="M 296.582031 229.652344 L 332.523438 191.523438 "/>
<path style="fill-rule:nonzero;fill:rgb(100%,100%,100%);fill-opacity:1;stroke-width:1.5;stroke-linecap:round;stroke-linejoin:round;stroke:rgb(0%,0%,0%);stroke-opacity:1;stroke-miterlimit:10;" d="M 322.890625 165.476562 C 322.890625 170.878906 314.792969 170.878906 314.792969 165.476562 C 314.792969 160.078125 322.890625 160.078125 322.890625 165.476562 "/>
<path style="fill-rule:nonzero;fill:rgb(100%,100%,100%);fill-opacity:1;stroke-width:1.5;stroke-linecap:round;stroke-linejoin:round;stroke:rgb(0%,0%,0%);stroke-opacity:1;stroke-miterlimit:10;" d="M 306.640625 155.074219 C 306.640625 160.472656 298.539062 160.472656 298.539062 155.074219 C 298.539062 149.675781 306.640625 149.675781 306.640625 155.074219 "/>
<path style="fill-rule:nonzero;fill:rgb(100%,100%,100%);fill-opacity:1;stroke-width:1.5;stroke-linecap:round;stroke-linejoin:round;stroke:rgb(0%,0%,0%);stroke-opacity:1;stroke-miterlimit:10;" d="M 288.8125 147.691406 C 288.8125 153.089844 280.714844 153.089844 280.714844 147.691406 C 280.714844 142.289062 288.8125 142.289062 288.8125 147.691406 "/>
<path style="fill-rule:nonzero;fill:rgb(50.196078%,50.196078%,100%);fill-opacity:1;stroke-width:1.5;stroke-linecap:round;stroke-linejoin:round;stroke:rgb(0%,0%,0%);stroke-opacity:1;stroke-miterlimit:10;" d="M 269.964844 143.554688 C 269.964844 148.953125 261.867188 148.953125 261.867188 143.554688 C 261.867188 138.15625 269.964844 138.15625 269.964844 143.554688 "/>
<path style="fill:none;stroke-width:1.5;stroke-linecap:round;stroke-linejoin:round;stroke:rgb(0%,0%,0%);stroke-opacity:1;stroke-miterlimit:10;" d="M 274.347656 207.417969 L 312.476562 171.476562 "/>
<path style="fill:none;stroke-width:1.5;stroke-linecap:round;stroke-linejoin:round;stroke:rgb(0%,0%,0%);stroke-opacity:1;stroke-miterlimit:10;" d="M 272.445312 205.894531 L 298.128906 162.597656 "/>
<path style="fill:none;stroke-width:1.5;stroke-linecap:round;stroke-linejoin:round;stroke:rgb(0%,0%,0%);stroke-opacity:1;stroke-miterlimit:10;" d="M 270.144531 204.941406 L 282.601562 156.164062 "/>
<path style="fill:none;stroke-width:1.5;stroke-linecap:round;stroke-linejoin:round;stroke:rgb(0%,0%,0%);stroke-opacity:1;stroke-miterlimit:10;" d="M 267.722656 204.671875 L 266.175781 152.296875 "/>
<path style="fill-rule:nonzero;fill:rgb(100%,100%,100%);fill-opacity:1;stroke-width:1.5;stroke-linecap:round;stroke-linejoin:round;stroke:rgb(0%,0%,0%);stroke-opacity:1;stroke-miterlimit:10;" d="M 242.132812 143.554688 C 242.132812 148.953125 234.035156 148.953125 234.035156 143.554688 C 234.035156 138.15625 242.132812 138.15625 242.132812 143.554688 "/>
<path style="fill-rule:nonzero;fill:rgb(100%,100%,100%);fill-opacity:1;stroke-width:1.5;stroke-linecap:round;stroke-linejoin:round;stroke:rgb(0%,0%,0%);stroke-opacity:1;stroke-miterlimit:10;" d="M 223.285156 147.691406 C 223.285156 153.089844 215.1875 153.089844 215.1875 147.691406 C 215.1875 142.289062 223.285156 142.289062 223.285156 147.691406 "/>
<path style="fill-rule:nonzero;fill:rgb(100%,100%,100%);fill-opacity:1;stroke-width:1.5;stroke-linecap:round;stroke-linejoin:round;stroke:rgb(0%,0%,0%);stroke-opacity:1;stroke-miterlimit:10;" d="M 205.460938 155.074219 C 205.460938 160.472656 197.359375 160.472656 197.359375 155.074219 C 197.359375 149.675781 205.460938 149.675781 205.460938 155.074219 "/>
<path style="fill-rule:nonzero;fill:rgb(50.196078%,50.196078%,100%);fill-opacity:1;stroke-width:1.5;stroke-linecap:round;stroke-linejoin:round;stroke:rgb(0%,0%,0%);stroke-opacity:1;stroke-miterlimit:10;" d="M 189.207031 165.476562 C 189.207031 170.878906 181.109375 170.878906 181.109375 165.476562 C 181.109375 160.078125 189.207031 160.078125 189.207031 165.476562 "/>
<path style="fill:none;stroke-width:1.5;stroke-linecap:round;stroke-linejoin:round;stroke:rgb(0%,0%,0%);stroke-opacity:1;stroke-miterlimit:10;" d="M 236.277344 204.671875 L 237.824219 152.296875 "/>
<path style="fill:none;stroke-width:1.5;stroke-linecap:round;stroke-linejoin:round;stroke:rgb(0%,0%,0%);stroke-opacity:1;stroke-miterlimit:10;" d="M 233.855469 204.941406 L 221.398438 156.164062 "/>
<path style="fill:none;stroke-width:1.5;stroke-linecap:round;stroke-linejoin:round;stroke:rgb(0%,0%,0%);stroke-opacity:1;stroke-miterlimit:10;" d="M 231.554688 205.894531 L 205.871094 162.597656 "/>
<path style="fill:none;stroke-width:1.5;stroke-linecap:round;stroke-linejoin:round;stroke:rgb(0%,0%,0%);stroke-opacity:1;stroke-miterlimit:10;" d="M 229.652344 207.417969 L 191.523438 171.476562 "/>
<path style="fill-rule:nonzero;fill:rgb(100%,100%,100%);fill-opacity:1;stroke-width:1.5;stroke-linecap:round;stroke-linejoin:round;stroke:rgb(0%,0%,0%);stroke-opacity:1;stroke-miterlimit:10;" d="M 169.527344 185.15625 C 169.527344 190.558594 161.425781 190.558594 161.425781 185.15625 C 161.425781 179.757812 169.527344 179.757812 169.527344 185.15625 "/>
<path style="fill-rule:nonzero;fill:rgb(100%,100%,100%);fill-opacity:1;stroke-width:1.5;stroke-linecap:round;stroke-linejoin:round;stroke:rgb(0%,0%,0%);stroke-opacity:1;stroke-miterlimit:10;" d="M 159.125 201.410156 C 159.125 206.808594 151.023438 206.808594 151.023438 201.410156 C 151.023438 196.007812 159.125 196.007812 159.125 201.410156 "/>
<path style="fill-rule:nonzero;fill:rgb(100%,100%,100%);fill-opacity:1;stroke-width:1.5;stroke-linecap:round;stroke-linejoin:round;stroke:rgb(0%,0%,0%);stroke-opacity:1;stroke-miterlimit:10;" d="M 151.738281 219.234375 C 151.738281 224.636719 143.640625 224.636719 143.640625 219.234375 C 143.640625 213.835938 151.738281 213.835938 151.738281 219.234375 "/>
<path style="fill-rule:nonzero;fill:rgb(50.196078%,50.196078%,100%);fill-opacity:1;stroke-width:1.5;stroke-linecap:round;stroke-linejoin:round;stroke:rgb(0%,0%,0%);stroke-opacity:1;stroke-miterlimit:10;" d="M 147.605469 238.082031 C 147.605469 243.484375 139.503906 243.484375 139.503906 238.082031 C 139.503906 232.683594 147.605469 232.683594 147.605469 238.082031 "/>
<path style="fill:none;stroke-width:1.5;stroke-linecap:round;stroke-linejoin:round;stroke:rgb(0%,0%,0%);stroke-opacity:1;stroke-miterlimit:10;" d="M 207.417969 229.652344 L 171.476562 191.523438 "/>
<path style="fill:none;stroke-width:1.5;stroke-linecap:round;stroke-linejoin:round;stroke:rgb(0%,0%,0%);stroke-opacity:1;stroke-miterlimit:10;" d="M 205.894531 231.554688 L 162.597656 205.871094 "/>
<path style="fill:none;stroke-width:1.5;stroke-linecap:round;stroke-linejoin:round;stroke:rgb(0%,0%,0%);stroke-opacity:1;stroke-miterlimit:10;" d="M 204.941406 233.855469 L 156.164062 221.398438 "/>
<path style="fill:none;stroke-width:1.5;stroke-linecap:round;stroke-linejoin:round;stroke:rgb(0%,0%,0%);stroke-opacity:1;stroke-miterlimit:10;" d="M 204.671875 236.277344 L 152.296875 237.824219 "/>
<path style="fill:none;stroke-width:1.5;stroke-linecap:round;stroke-linejoin:round;stroke:rgb(0%,0%,0%);stroke-opacity:1;stroke-miterlimit:10;" d="M 260.082031 248.652344 L 282.503906 239.367188 "/>
<path style="fill:none;stroke-width:1.5;stroke-linecap:round;stroke-linejoin:round;stroke:rgb(0%,0%,0%);stroke-opacity:1;stroke-miterlimit:10;" d="M 255.347656 243.917969 L 264.632812 221.496094 "/>
<path style="fill:none;stroke-width:1.5;stroke-linecap:round;stroke-linejoin:round;stroke:rgb(0%,0%,0%);stroke-opacity:1;stroke-miterlimit:10;" d="M 248.652344 243.917969 L 239.367188 221.496094 "/>
<path style="fill:none;stroke-width:1.5;stroke-linecap:round;stroke-linejoin:round;stroke:rgb(0%,0%,0%);stroke-opacity:1;stroke-miterlimit:10;" d="M 243.917969 248.652344 L 221.496094 239.367188 "/>
</g>
</svg>
