<?xml version="1.0" encoding="UTF-8"?>
<svg xmlns="http://www.w3.org/2000/svg" xmlns:xlink="http://www.w3.org/1999/xlink" width="432pt" height="216pt" viewBox="0 0 432 216" version="1.1">
<g id="surface89">
<rect x="0" y="0" width="432" height="216" style="fill:rgb(100%,100%,100%);fill-opacity:1;stroke:none;"/>
<path style=" stroke:none;fill-rule:nonzero;fill:rgb(20%,20%,20%);fill-opacity:1;" d="M 71.734375 141.734375 L 96.144531 141.734375 L 96.144531 141.40625 L 71.734375 141.40625 Z M 71.734375 141.734375 "/>
<path style=" stroke:none;fill-rule:nonzero;fill:rgb(20%,20%,20%);fill-opacity:1;" d="M 101.027344 141.734375 L 125.4375 141.734375 L 125.4375 138.453125 L 101.027344 138.453125 Z M 101.027344 141.734375 "/>
<path style=" stroke:none;fill-rule:nonzero;fill:rgb(20%,20%,20%);fill-opacity:1;" d="M 130.316406 141.734375 L 154.726562 141.734375 L 154.726562 126.96875 L 130.316406 126.96875 Z M 130.316406 141.734375 "/>
<path style=" stroke:none;fill-rule:nonzero;fill:rgb(20%,20%,20%);fill-opacity:1;" d="M 159.609375 141.734375 L 184.019531 141.734375 L 184.019531 102.355469 L 159.609375 102.355469 Z M 159.609375 141.734375 "/>
<path style=" stroke:none;fill-rule:nonzero;fill:rgb(20%,20%,20%);fill-opacity:1;" d="M 188.902344 141.734375 L 213.3125 141.734375 L 213.3125 72.824219 L 188.902344 72.824219 Z M 188.902344 141.734375 "/>
<path style=" stroke:none;fill-rule:nonzero;fill:rgb(20%,20%,20%);fill-opacity:1;" d="M 218.195312 141.734375 L 242.605469 141.734375 L 242.605469 59.042969 L 218.195312 59.042969 Z M 218.195312 141.734375 "/>
<path style=" stroke:none;fill-rule:nonzero;fill:rgb(20%,20%,20%);fill-opacity:1;" d="M 247.488281 141.734375 L 271.898438 141.734375 L 271.898438 72.824219 L 247.488281 72.824219 Z M 247.488281 141.734375 "/>
<path style=" stroke:none;fill-rule:nonzero;fill:rgb(20%,20%,20%);fill-opacity:1;" d="M 276.78125 141.734375 L 301.191406 141.734375 L 301.191406 102.355469 L 276.78125 102.355469 Z M 276.78125 141.734375 "/>
<path style=" stroke:none;fill-rule:nonzero;fill:rgb(20%,20%,20%);fill-opacity:1;" d="M 306.070312 141.734375 L 330.480469 141.734375 L 330.480469 126.96875 L 306.070312 126.96875 Z M 306.070312 141.734375 "/>
<path style=" stroke:none;fill-rule:nonzero;fill:rgb(20%,20%,20%);fill-opacity:1;" d="M 335.363281 141.734375 L 359.773438 141.734375 L 359.773438 138.453125 L 335.363281 138.453125 Z M 335.363281 141.734375 "/>
<path style=" stroke:none;fill-rule:nonzero;fill:rgb(20%,20%,20%);fill-opacity:1;" d="M 364.65625 141.734375 L 389.066406 141.734375 L 389.066406 141.40625 L 364.65625 141.40625 Z M 364.65625 141.734375 "/>
<path style=" stroke:none;fill-rule:nonzero;fill:rgb(0%,0%,0%);fill-opacity:1;" d="M 88.242188 162.285156 L 88.238281 162.636719 L 88.226562 162.976562 L 88.210938 163.304688 L 88.1875 163.621094 L 88.15625 163.925781 L 88.117188 164.222656 L 88.074219 164.507812 L 88.019531 164.777344 L 87.964844 165.039062 L 87.898438 165.289062 L 87.828125 165.527344 L 87.753906 165.757812 L 87.675781 165.976562 L 87.589844 166.1875 L 87.5 166.386719 L 87.40625 166.582031 L 87.304688 166.765625 L 87.199219 166.9375 L 87.089844 167.101562 L 86.976562 167.257812 L 86.855469 167.402344 L 86.734375 167.539062 L 86.609375 167.667969 L 86.476562 167.789062 L 86.34375 167.898438 L 86.203125 168.003906 L 86.058594 168.097656 L 85.910156 168.183594 L 85.761719 168.261719 L 85.605469 168.332031 L 85.285156 168.449219 L 85.121094 168.496094 L 84.953125 168.539062 L 84.785156 168.574219 L 84.617188 168.605469 L 84.445312 168.625 L 84.269531 168.644531 L 84.09375 168.652344 L 83.917969 168.65625 L 83.738281 168.652344 L 83.558594 168.644531 L 83.382812 168.625 L 83.210938 168.605469 L 83.042969 168.574219 L 82.875 168.539062 L 82.710938 168.496094 L 82.546875 168.449219 L 82.386719 168.390625 L 82.230469 168.332031 L 82.074219 168.261719 L 81.925781 168.183594 L 81.777344 168.097656 L 81.636719 168.003906 L 81.496094 167.898438 L 81.363281 167.789062 L 81.234375 167.667969 L 81.105469 167.539062 L 80.984375 167.402344 L 80.867188 167.257812 L 80.753906 167.105469 L 80.648438 166.941406 L 80.546875 166.769531 L 80.449219 166.585938 L 80.355469 166.394531 L 80.265625 166.195312 L 80.183594 165.984375 L 80.105469 165.765625 L 80.03125 165.535156 L 79.960938 165.296875 L 79.898438 165.046875 L 79.84375 164.785156 L 79.796875 164.515625 L 79.753906 164.230469 L 79.71875 163.933594 L 79.6875 163.625 L 79.664062 163.308594 L 79.648438 162.976562 L 79.640625 162.636719 L 79.636719 162.285156 L 79.640625 161.914062 L 79.648438 161.5625 L 79.664062 161.21875 L 79.6875 160.890625 L 79.71875 160.574219 L 79.753906 160.269531 L 79.796875 159.980469 L 79.84375 159.703125 L 79.898438 159.441406 L 79.960938 159.191406 L 80.03125 158.949219 L 80.105469 158.71875 L 80.183594 158.496094 L 80.269531 158.285156 L 80.355469 158.085938 L 80.449219 157.894531 L 80.550781 157.710938 L 80.652344 157.542969 L 80.761719 157.382812 L 80.875 157.230469 L 80.992188 157.089844 L 81.117188 156.957031 L 81.242188 156.832031 L 81.375 156.714844 L 81.507812 156.609375 L 81.648438 156.511719 L 81.789062 156.425781 L 81.9375 156.34375 L 82.089844 156.273438 L 82.246094 156.210938 L 82.40625 156.152344 L 82.570312 156.101562 L 82.734375 156.058594 L 82.902344 156.019531 L 83.074219 155.988281 L 83.246094 155.960938 L 83.421875 155.9375 L 83.601562 155.921875 L 83.785156 155.914062 L 83.96875 155.910156 L 84.144531 155.914062 L 84.320312 155.921875 L 84.492188 155.9375 L 84.660156 155.960938 L 84.828125 155.988281 L 84.992188 156.019531 L 85.15625 156.058594 L 85.316406 156.101562 L 85.472656 156.152344 L 85.628906 156.210938 L 85.785156 156.273438 L 85.933594 156.34375 L 86.082031 156.425781 L 86.222656 156.511719 L 86.363281 156.609375 L 86.496094 156.714844 L 86.625 156.832031 L 86.753906 156.957031 L 86.875 157.089844 L 86.992188 157.230469 L 87.105469 157.382812 L 87.214844 157.542969 L 87.320312 157.710938 L 87.417969 157.894531 L 87.511719 158.085938 L 87.601562 158.285156 L 87.683594 158.496094 L 87.761719 158.71875 L 87.835938 158.949219 L 87.90625 159.191406 L 87.96875 159.441406 L 88.027344 159.703125 L 88.078125 159.980469 L 88.121094 160.269531 L 88.15625 160.574219 L 88.1875 160.890625 L 88.210938 161.21875 L 88.226562 161.5625 L 88.238281 161.914062 Z M 86.632812 162.285156 L 86.628906 161.992188 L 86.625 161.714844 L 86.617188 161.441406 L 86.605469 161.183594 L 86.589844 160.933594 L 86.570312 160.691406 L 86.546875 160.460938 L 86.519531 160.242188 L 86.488281 160.03125 L 86.457031 159.832031 L 86.417969 159.640625 L 86.378906 159.453125 L 86.335938 159.277344 L 86.289062 159.109375 L 86.238281 158.949219 L 86.183594 158.796875 L 86.128906 158.652344 L 86.070312 158.515625 L 86.003906 158.386719 L 85.9375 158.265625 L 85.867188 158.152344 L 85.792969 158.046875 L 85.71875 157.945312 L 85.636719 157.851562 L 85.554688 157.765625 L 85.46875 157.6875 L 85.378906 157.613281 L 85.289062 157.550781 L 85.191406 157.492188 L 85.09375 157.441406 L 84.996094 157.394531 L 84.890625 157.351562 L 84.785156 157.316406 L 84.679688 157.285156 L 84.566406 157.257812 L 84.453125 157.234375 L 84.335938 157.21875 L 84.214844 157.203125 L 84.09375 157.199219 L 83.96875 157.195312 L 83.835938 157.199219 L 83.707031 157.203125 L 83.582031 157.21875 L 83.460938 157.234375 L 83.339844 157.257812 L 83.226562 157.285156 L 83.113281 157.316406 L 83 157.351562 L 82.894531 157.394531 L 82.792969 157.441406 L 82.691406 157.492188 L 82.59375 157.554688 L 82.5 157.621094 L 82.410156 157.691406 L 82.320312 157.773438 L 82.238281 157.859375 L 82.15625 157.953125 L 82.078125 158.054688 L 82.003906 158.160156 L 81.929688 158.277344 L 81.863281 158.394531 L 81.800781 158.523438 L 81.738281 158.660156 L 81.683594 158.804688 L 81.628906 158.957031 L 81.578125 159.117188 L 81.53125 159.285156 L 81.488281 159.460938 L 81.449219 159.648438 L 81.410156 159.839844 L 81.378906 160.039062 L 81.347656 160.25 L 81.320312 160.46875 L 81.300781 160.699219 L 81.28125 160.9375 L 81.265625 161.1875 L 81.25 161.449219 L 81.242188 161.714844 L 81.238281 161.996094 L 81.234375 162.285156 L 81.238281 162.5625 L 81.242188 162.835938 L 81.25 163.097656 L 81.265625 163.351562 L 81.28125 163.59375 L 81.300781 163.832031 L 81.320312 164.058594 L 81.347656 164.273438 L 81.378906 164.484375 L 81.410156 164.683594 L 81.449219 164.875 L 81.492188 165.058594 L 81.535156 165.234375 L 81.585938 165.402344 L 81.636719 165.5625 L 81.691406 165.71875 L 81.746094 165.863281 L 81.808594 166.003906 L 81.871094 166.132812 L 81.9375 166.257812 L 82.011719 166.371094 L 82.085938 166.480469 L 82.164062 166.582031 L 82.242188 166.675781 L 82.328125 166.765625 L 82.414062 166.847656 L 82.503906 166.921875 L 82.597656 166.992188 L 82.691406 167.054688 L 82.792969 167.109375 L 82.894531 167.15625 L 82.996094 167.199219 L 83.105469 167.238281 L 83.214844 167.273438 L 83.328125 167.300781 L 83.441406 167.324219 L 83.683594 167.355469 L 83.933594 167.363281 L 84.058594 167.359375 L 84.179688 167.355469 L 84.414062 167.324219 L 84.527344 167.300781 L 84.636719 167.273438 L 84.746094 167.238281 L 84.855469 167.199219 L 84.957031 167.15625 L 85.058594 167.109375 L 85.15625 167.054688 L 85.253906 166.992188 L 85.34375 166.921875 L 85.433594 166.847656 L 85.519531 166.765625 L 85.601562 166.675781 L 85.683594 166.582031 L 85.757812 166.480469 L 85.832031 166.371094 L 85.902344 166.257812 L 85.972656 166.132812 L 86.035156 166.003906 L 86.097656 165.863281 L 86.15625 165.71875 L 86.210938 165.5625 L 86.265625 165.402344 L 86.3125 165.234375 L 86.359375 165.058594 L 86.398438 164.875 L 86.4375 164.683594 L 86.476562 164.484375 L 86.507812 164.273438 L 86.539062 164.058594 L 86.5625 163.832031 L 86.582031 163.59375 L 86.601562 163.351562 L 86.613281 163.097656 L 86.625 162.835938 L 86.628906 162.5625 Z M 86.632812 162.285156 "/>
<path style=" stroke:none;fill-rule:nonzero;fill:rgb(0%,0%,0%);fill-opacity:1;" d="M 109.597656 168.480469 L 109.597656 167.136719 L 112.75 167.136719 L 112.75 157.609375 L 109.957031 159.601562 L 109.957031 158.109375 L 112.882812 156.097656 L 114.34375 156.097656 L 114.34375 167.136719 L 117.355469 167.136719 L 117.355469 168.480469 Z M 109.597656 168.480469 "/>
<path style=" stroke:none;fill-rule:nonzero;fill:rgb(0%,0%,0%);fill-opacity:1;" d="M 138.421875 168.480469 L 138.421875 167.363281 L 138.515625 167.160156 L 138.609375 166.960938 L 138.710938 166.769531 L 138.8125 166.582031 L 138.917969 166.398438 L 139.03125 166.21875 L 139.144531 166.042969 L 139.265625 165.875 L 139.386719 165.710938 L 139.511719 165.554688 L 139.777344 165.242188 L 140.042969 164.945312 L 140.179688 164.800781 L 140.316406 164.660156 L 140.453125 164.523438 L 140.734375 164.257812 L 140.875 164.128906 L 141.015625 164.003906 L 141.160156 163.875 L 141.582031 163.511719 L 141.863281 163.277344 L 142.003906 163.164062 L 142.140625 163.054688 L 142.28125 162.941406 L 142.421875 162.832031 L 142.558594 162.726562 L 142.691406 162.617188 L 142.949219 162.398438 L 143.074219 162.289062 L 143.316406 162.070312 L 143.433594 161.960938 L 143.546875 161.851562 L 143.65625 161.742188 L 143.761719 161.632812 L 143.863281 161.519531 L 143.960938 161.410156 L 144.054688 161.296875 L 144.144531 161.179688 L 144.226562 161.0625 L 144.304688 160.949219 L 144.382812 160.828125 L 144.453125 160.710938 L 144.519531 160.589844 L 144.578125 160.464844 L 144.632812 160.335938 L 144.675781 160.207031 L 144.714844 160.074219 L 144.746094 159.9375 L 144.773438 159.796875 L 144.789062 159.652344 L 144.800781 159.507812 L 144.804688 159.355469 L 144.796875 159.152344 L 144.789062 159.050781 L 144.765625 158.863281 L 144.726562 158.683594 L 144.703125 158.597656 L 144.675781 158.515625 L 144.644531 158.433594 L 144.613281 158.355469 L 144.578125 158.277344 L 144.539062 158.203125 L 144.453125 158.0625 L 144.40625 157.996094 L 144.355469 157.933594 L 144.300781 157.871094 L 144.246094 157.8125 L 144.128906 157.703125 L 144.0625 157.652344 L 144 157.605469 L 143.859375 157.519531 L 143.785156 157.480469 L 143.710938 157.445312 L 143.632812 157.410156 L 143.550781 157.378906 L 143.46875 157.351562 L 143.382812 157.328125 L 143.296875 157.300781 L 143.210938 157.28125 L 143.121094 157.261719 L 143.03125 157.246094 L 142.9375 157.234375 L 142.84375 157.226562 L 142.746094 157.21875 L 142.644531 157.214844 L 142.546875 157.210938 L 142.449219 157.214844 L 142.355469 157.21875 L 142.265625 157.222656 L 142.171875 157.234375 L 142.082031 157.246094 L 141.996094 157.261719 L 141.90625 157.277344 L 141.820312 157.296875 L 141.648438 157.34375 L 141.566406 157.371094 L 141.410156 157.433594 L 141.332031 157.472656 L 141.257812 157.507812 L 141.183594 157.550781 L 141.113281 157.59375 L 141.042969 157.640625 L 140.976562 157.6875 L 140.910156 157.738281 L 140.847656 157.792969 L 140.785156 157.851562 L 140.726562 157.910156 L 140.667969 157.972656 L 140.613281 158.035156 L 140.5625 158.105469 L 140.511719 158.171875 L 140.417969 158.320312 L 140.375 158.398438 L 140.335938 158.476562 L 140.300781 158.558594 L 140.265625 158.644531 L 140.234375 158.730469 L 140.207031 158.820312 L 140.183594 158.910156 L 140.160156 159.003906 L 140.140625 159.101562 L 140.109375 159.304688 L 138.492188 159.15625 L 138.511719 159.023438 L 138.535156 158.890625 L 138.558594 158.761719 L 138.589844 158.632812 L 138.625 158.507812 L 138.664062 158.382812 L 138.707031 158.257812 L 138.753906 158.136719 L 138.804688 158.015625 L 138.921875 157.78125 L 138.988281 157.667969 L 139.054688 157.558594 L 139.128906 157.449219 L 139.207031 157.347656 L 139.289062 157.246094 L 139.375 157.148438 L 139.46875 157.050781 L 139.5625 156.960938 L 139.765625 156.78125 L 139.984375 156.617188 L 140.101562 156.542969 L 140.222656 156.46875 L 140.347656 156.402344 L 140.476562 156.335938 L 140.605469 156.277344 L 140.742188 156.21875 L 140.882812 156.167969 L 141.03125 156.117188 L 141.179688 156.074219 L 141.335938 156.035156 L 141.496094 156.003906 L 141.660156 155.976562 L 141.828125 155.953125 L 142 155.933594 L 142.175781 155.921875 L 142.359375 155.914062 L 142.546875 155.910156 L 142.726562 155.914062 L 142.90625 155.921875 L 143.082031 155.929688 L 143.25 155.945312 L 143.417969 155.964844 L 143.738281 156.019531 L 143.890625 156.050781 L 144.042969 156.089844 L 144.332031 156.175781 L 144.46875 156.226562 L 144.601562 156.28125 L 144.730469 156.339844 L 144.851562 156.402344 L 144.972656 156.472656 L 145.085938 156.542969 L 145.195312 156.617188 L 145.300781 156.699219 L 145.402344 156.78125 L 145.5 156.871094 L 145.59375 156.960938 L 145.679688 157.058594 L 145.765625 157.160156 L 145.84375 157.261719 L 145.917969 157.371094 L 145.988281 157.484375 L 146.050781 157.601562 L 146.109375 157.71875 L 146.167969 157.84375 L 146.214844 157.972656 L 146.261719 158.105469 L 146.300781 158.242188 L 146.335938 158.382812 L 146.363281 158.527344 L 146.386719 158.675781 L 146.40625 158.824219 L 146.417969 158.980469 L 146.425781 159.140625 L 146.429688 159.304688 L 146.425781 159.429688 L 146.421875 159.550781 L 146.410156 159.671875 L 146.394531 159.792969 L 146.371094 159.914062 L 146.347656 160.03125 L 146.316406 160.148438 L 146.285156 160.261719 L 146.246094 160.378906 L 146.203125 160.492188 L 146.15625 160.601562 L 146.105469 160.714844 L 146.054688 160.824219 L 146 160.933594 L 145.941406 161.039062 L 145.878906 161.148438 L 145.816406 161.253906 L 145.75 161.355469 L 145.675781 161.460938 L 145.605469 161.5625 L 145.371094 161.867188 L 145.289062 161.964844 L 145.117188 162.160156 L 145.027344 162.257812 L 144.839844 162.453125 L 144.644531 162.640625 L 144.542969 162.738281 L 144.238281 163.019531 L 144.136719 163.109375 L 143.925781 163.296875 L 143.820312 163.386719 L 143.714844 163.480469 L 143.605469 163.570312 L 143.5 163.660156 L 143.390625 163.746094 L 143.285156 163.835938 L 143.066406 164.015625 L 142.960938 164.105469 L 142.523438 164.464844 L 142.417969 164.550781 L 142.3125 164.640625 L 142.207031 164.726562 L 142.101562 164.816406 L 141.898438 164.996094 L 141.800781 165.085938 L 141.703125 165.171875 L 141.605469 165.261719 L 141.417969 165.441406 L 141.328125 165.535156 L 141.242188 165.625 L 141.152344 165.714844 L 141.070312 165.808594 L 140.988281 165.898438 L 140.90625 165.992188 L 140.828125 166.085938 L 140.753906 166.175781 L 140.679688 166.269531 L 140.539062 166.457031 L 140.414062 166.644531 L 140.304688 166.839844 L 140.253906 166.9375 L 140.207031 167.035156 L 140.164062 167.136719 L 146.625 167.136719 L 146.625 168.480469 Z M 138.421875 168.480469 "/>
<path style=" stroke:none;fill-rule:nonzero;fill:rgb(0%,0%,0%);fill-opacity:1;" d="M 176.03125 165.0625 L 176.027344 165.230469 L 176.019531 165.394531 L 176.003906 165.554688 L 175.984375 165.714844 L 175.960938 165.867188 L 175.929688 166.019531 L 175.851562 166.308594 L 175.75 166.582031 L 175.691406 166.714844 L 175.628906 166.839844 L 175.5625 166.964844 L 175.488281 167.082031 L 175.410156 167.199219 L 175.328125 167.308594 L 175.238281 167.417969 L 175.144531 167.519531 L 175.042969 167.621094 L 174.941406 167.714844 L 174.832031 167.804688 L 174.71875 167.890625 L 174.601562 167.96875 L 174.476562 168.046875 L 174.347656 168.121094 L 174.210938 168.1875 L 174.074219 168.25 L 173.925781 168.3125 L 173.777344 168.367188 L 173.621094 168.417969 L 173.460938 168.464844 L 173.300781 168.503906 L 173.132812 168.539062 L 172.960938 168.570312 L 172.78125 168.597656 L 172.601562 168.617188 L 172.414062 168.632812 L 172.222656 168.644531 L 172.027344 168.652344 L 171.828125 168.65625 L 171.601562 168.652344 L 171.382812 168.644531 L 171.171875 168.628906 L 170.964844 168.609375 L 170.765625 168.585938 L 170.578125 168.554688 L 170.394531 168.519531 L 170.21875 168.476562 L 170.046875 168.429688 L 169.886719 168.375 L 169.734375 168.316406 L 169.585938 168.25 L 169.441406 168.183594 L 169.304688 168.113281 L 169.171875 168.039062 L 169.046875 167.964844 L 168.925781 167.882812 L 168.808594 167.796875 L 168.699219 167.710938 L 168.59375 167.617188 L 168.496094 167.523438 L 168.402344 167.425781 L 168.3125 167.324219 L 168.226562 167.21875 L 168.148438 167.113281 L 168.074219 167.003906 L 168.003906 166.894531 L 167.941406 166.78125 L 167.882812 166.664062 L 167.828125 166.546875 L 167.78125 166.425781 L 167.734375 166.300781 L 167.691406 166.179688 L 167.652344 166.054688 L 167.617188 165.929688 L 167.585938 165.804688 L 167.558594 165.679688 L 167.535156 165.554688 L 167.511719 165.425781 L 167.496094 165.296875 L 169.128906 165.148438 L 169.144531 165.246094 L 169.164062 165.34375 L 169.183594 165.4375 L 169.203125 165.527344 L 169.230469 165.621094 L 169.253906 165.707031 L 169.285156 165.796875 L 169.316406 165.878906 L 169.347656 165.964844 L 169.386719 166.046875 L 169.425781 166.125 L 169.46875 166.203125 L 169.511719 166.277344 L 169.5625 166.351562 L 169.613281 166.421875 L 169.664062 166.488281 L 169.71875 166.554688 L 169.777344 166.621094 L 169.902344 166.738281 L 169.96875 166.796875 L 170.039062 166.851562 L 170.113281 166.902344 L 170.1875 166.949219 L 170.265625 166.996094 L 170.347656 167.039062 L 170.433594 167.082031 L 170.519531 167.121094 L 170.609375 167.15625 L 170.703125 167.1875 L 170.800781 167.21875 L 170.902344 167.246094 L 171.003906 167.269531 L 171.222656 167.308594 L 171.335938 167.320312 L 171.453125 167.332031 L 171.574219 167.339844 L 171.699219 167.34375 L 171.828125 167.347656 L 172.0625 167.339844 L 172.285156 167.324219 L 172.5 167.292969 L 172.703125 167.253906 L 172.894531 167.199219 L 173.078125 167.132812 L 173.246094 167.058594 L 173.410156 166.96875 L 173.558594 166.871094 L 173.699219 166.757812 L 173.832031 166.632812 L 173.949219 166.5 L 174.050781 166.351562 L 174.140625 166.195312 L 174.214844 166.027344 L 174.277344 165.84375 L 174.324219 165.652344 L 174.359375 165.449219 L 174.378906 165.234375 L 174.386719 165.007812 L 174.382812 164.875 L 174.375 164.746094 L 174.359375 164.621094 L 174.335938 164.503906 L 174.308594 164.390625 L 174.277344 164.285156 L 174.234375 164.183594 L 174.1875 164.085938 L 174.136719 163.996094 L 174.078125 163.910156 L 174.015625 163.828125 L 173.953125 163.75 L 173.886719 163.675781 L 173.8125 163.601562 L 173.738281 163.535156 L 173.664062 163.472656 L 173.582031 163.414062 L 173.5 163.359375 L 173.414062 163.308594 L 173.324219 163.257812 L 173.230469 163.214844 L 173.140625 163.171875 L 173.046875 163.132812 L 172.949219 163.09375 L 172.753906 163.03125 L 172.652344 163.003906 L 172.550781 162.980469 L 172.339844 162.941406 L 172.234375 162.929688 L 172.128906 162.914062 L 172.027344 162.902344 L 171.929688 162.890625 L 171.734375 162.875 L 171.453125 162.863281 L 170.464844 162.863281 L 170.464844 161.492188 L 171.417969 161.492188 L 171.507812 161.488281 L 171.601562 161.484375 L 171.691406 161.480469 L 171.785156 161.472656 L 172.066406 161.4375 L 172.164062 161.421875 L 172.257812 161.40625 L 172.355469 161.382812 L 172.542969 161.335938 L 172.632812 161.304688 L 172.71875 161.273438 L 172.808594 161.238281 L 172.894531 161.199219 L 172.976562 161.160156 L 173.058594 161.117188 L 173.136719 161.070312 L 173.21875 161.019531 L 173.292969 160.964844 L 173.367188 160.90625 L 173.4375 160.847656 L 173.570312 160.714844 L 173.632812 160.644531 L 173.6875 160.570312 L 173.746094 160.492188 L 173.847656 160.328125 L 173.890625 160.238281 L 173.933594 160.144531 L 173.996094 159.941406 L 174.019531 159.832031 L 174.039062 159.722656 L 174.050781 159.605469 L 174.058594 159.484375 L 174.0625 159.355469 L 174.054688 159.164062 L 174.039062 158.976562 L 174.007812 158.800781 L 173.964844 158.628906 L 173.914062 158.46875 L 173.847656 158.316406 L 173.773438 158.171875 L 173.683594 158.039062 L 173.585938 157.910156 L 173.472656 157.792969 L 173.351562 157.683594 L 173.21875 157.582031 L 173.074219 157.496094 L 172.917969 157.421875 L 172.75 157.359375 L 172.570312 157.304688 L 172.378906 157.265625 L 172.179688 157.234375 L 171.964844 157.21875 L 171.742188 157.210938 L 171.535156 157.21875 L 171.339844 157.234375 L 171.148438 157.261719 L 170.96875 157.296875 L 170.792969 157.347656 L 170.628906 157.40625 L 170.46875 157.476562 L 170.320312 157.554688 L 170.179688 157.648438 L 170.042969 157.75 L 169.921875 157.859375 L 169.808594 157.980469 L 169.707031 158.109375 L 169.617188 158.246094 L 169.535156 158.394531 L 169.46875 158.550781 L 169.410156 158.714844 L 169.359375 158.886719 L 169.324219 159.070312 L 169.296875 159.261719 L 167.707031 159.136719 L 167.726562 158.976562 L 167.753906 158.820312 L 167.789062 158.664062 L 167.824219 158.515625 L 167.867188 158.371094 L 167.914062 158.230469 L 167.964844 158.097656 L 168.023438 157.964844 L 168.085938 157.835938 L 168.226562 157.59375 L 168.382812 157.367188 L 168.464844 157.261719 L 168.550781 157.160156 L 168.644531 157.0625 L 168.738281 156.96875 L 168.835938 156.878906 L 168.9375 156.792969 L 169.042969 156.710938 L 169.152344 156.632812 L 169.265625 156.558594 L 169.382812 156.488281 L 169.503906 156.421875 L 169.625 156.359375 L 169.75 156.300781 L 169.878906 156.25 L 170.011719 156.199219 L 170.144531 156.15625 L 170.28125 156.113281 L 170.421875 156.074219 L 170.5625 156.042969 L 170.707031 156.011719 L 170.851562 155.984375 L 170.996094 155.960938 L 171.148438 155.945312 L 171.296875 155.929688 L 171.449219 155.917969 L 171.601562 155.914062 L 171.757812 155.910156 L 171.960938 155.914062 L 172.160156 155.921875 L 172.355469 155.933594 L 172.542969 155.953125 L 172.722656 155.976562 L 172.898438 156.007812 L 173.066406 156.039062 L 173.230469 156.082031 L 173.390625 156.125 L 173.542969 156.175781 L 173.6875 156.226562 L 173.832031 156.285156 L 173.964844 156.34375 L 174.097656 156.410156 L 174.222656 156.480469 L 174.339844 156.550781 L 174.453125 156.625 L 174.5625 156.707031 L 174.667969 156.789062 L 174.765625 156.878906 L 174.855469 156.96875 L 174.945312 157.0625 L 175.027344 157.15625 L 175.101562 157.253906 L 175.175781 157.359375 L 175.242188 157.460938 L 175.304688 157.570312 L 175.359375 157.683594 L 175.410156 157.796875 L 175.457031 157.914062 L 175.5 158.035156 L 175.539062 158.15625 L 175.574219 158.28125 L 175.605469 158.40625 L 175.628906 158.53125 L 175.652344 158.660156 L 175.667969 158.792969 L 175.679688 158.921875 L 175.683594 159.054688 L 175.6875 159.191406 L 175.683594 159.296875 L 175.679688 159.40625 L 175.671875 159.511719 L 175.664062 159.613281 L 175.648438 159.71875 L 175.632812 159.820312 L 175.613281 159.917969 L 175.566406 160.113281 L 175.539062 160.210938 L 175.507812 160.304688 L 175.472656 160.394531 L 175.433594 160.484375 L 175.390625 160.574219 L 175.347656 160.660156 L 175.296875 160.746094 L 175.246094 160.828125 L 175.191406 160.90625 L 175.132812 160.984375 L 175.070312 161.0625 L 175.007812 161.136719 L 174.9375 161.210938 L 174.867188 161.28125 L 174.710938 161.414062 L 174.628906 161.476562 L 174.542969 161.539062 L 174.453125 161.597656 L 174.359375 161.65625 L 174.164062 161.765625 L 174.0625 161.816406 L 173.84375 161.910156 L 173.730469 161.953125 L 173.609375 161.992188 L 173.488281 162.027344 L 173.230469 162.097656 L 173.09375 162.125 L 173.09375 162.160156 L 173.242188 162.179688 L 173.386719 162.199219 L 173.660156 162.253906 L 173.792969 162.285156 L 173.921875 162.320312 L 174.046875 162.363281 L 174.164062 162.40625 L 174.28125 162.453125 L 174.394531 162.503906 L 174.503906 162.554688 L 174.609375 162.609375 L 174.710938 162.667969 L 174.808594 162.726562 L 174.898438 162.792969 L 174.988281 162.855469 L 175.074219 162.925781 L 175.15625 162.996094 L 175.234375 163.070312 L 175.308594 163.144531 L 175.378906 163.222656 L 175.445312 163.304688 L 175.507812 163.386719 L 175.625 163.558594 L 175.675781 163.648438 L 175.722656 163.738281 L 175.808594 163.925781 L 175.878906 164.121094 L 175.910156 164.222656 L 175.964844 164.425781 L 175.984375 164.53125 L 176 164.632812 L 176.023438 164.84375 Z M 176.03125 165.0625 "/>
<path style=" stroke:none;fill-rule:nonzero;fill:rgb(0%,0%,0%);fill-opacity:1;" d="M 203.84375 165.675781 L 203.84375 168.480469 L 202.351562 168.480469 L 202.351562 165.675781 L 196.515625 165.675781 L 196.515625 164.445312 L 202.183594 156.097656 L 203.84375 156.097656 L 203.84375 164.429688 L 205.585938 164.429688 L 205.585938 165.675781 Z M 202.351562 157.878906 L 202.34375 157.902344 L 202.335938 157.914062 L 202.320312 157.945312 L 202.3125 157.964844 L 202.300781 157.984375 L 202.277344 158.03125 L 202.261719 158.054688 L 202.25 158.082031 L 202.234375 158.105469 L 202.171875 158.214844 L 202.140625 158.277344 L 202.121094 158.304688 L 202.105469 158.335938 L 202.085938 158.371094 L 202.070312 158.402344 L 202.050781 158.433594 L 202.035156 158.464844 L 202.015625 158.496094 L 201.996094 158.53125 L 201.976562 158.5625 L 201.960938 158.597656 L 201.941406 158.628906 L 201.921875 158.664062 L 201.902344 158.695312 L 201.886719 158.722656 L 201.871094 158.753906 L 201.851562 158.78125 L 201.835938 158.808594 L 201.820312 158.832031 L 201.804688 158.859375 L 201.792969 158.882812 L 201.777344 158.90625 L 201.761719 158.925781 L 198.589844 163.601562 L 198.582031 163.617188 L 198.546875 163.664062 L 198.535156 163.683594 L 198.519531 163.703125 L 198.507812 163.722656 L 198.492188 163.742188 L 198.476562 163.765625 L 198.457031 163.785156 L 198.394531 163.878906 L 198.375 163.902344 L 198.34375 163.949219 L 198.324219 163.976562 L 198.308594 164 L 198.289062 164.023438 L 198.273438 164.046875 L 198.253906 164.070312 L 198.238281 164.09375 L 198.21875 164.117188 L 198.203125 164.136719 L 198.183594 164.160156 L 198.167969 164.183594 L 198.148438 164.207031 L 198.132812 164.230469 L 198.113281 164.253906 L 198.097656 164.273438 L 198.082031 164.296875 L 198.035156 164.355469 L 198.023438 164.371094 L 198.007812 164.386719 L 197.996094 164.402344 L 197.984375 164.414062 L 197.972656 164.429688 L 202.351562 164.429688 Z M 202.351562 157.878906 "/>
<path style=" stroke:none;fill-rule:nonzero;fill:rgb(0%,0%,0%);fill-opacity:1;" d="M 234.648438 164.445312 L 234.648438 164.628906 L 234.636719 164.8125 L 234.625 164.992188 L 234.605469 165.164062 L 234.578125 165.339844 L 234.546875 165.507812 L 234.511719 165.671875 L 234.46875 165.835938 L 234.421875 165.996094 L 234.367188 166.152344 L 234.308594 166.304688 L 234.246094 166.453125 L 234.175781 166.597656 L 234.101562 166.734375 L 234.019531 166.871094 L 233.933594 167.003906 L 233.839844 167.128906 L 233.742188 167.253906 L 233.640625 167.371094 L 233.535156 167.488281 L 233.300781 167.699219 L 233.175781 167.796875 L 233.046875 167.890625 L 232.910156 167.980469 L 232.769531 168.0625 L 232.625 168.140625 L 232.472656 168.214844 L 232.316406 168.285156 L 232.152344 168.347656 L 231.988281 168.40625 L 231.816406 168.457031 L 231.640625 168.503906 L 231.457031 168.546875 L 231.269531 168.578125 L 231.078125 168.605469 L 230.878906 168.628906 L 230.675781 168.644531 L 230.46875 168.652344 L 230.253906 168.65625 L 230.0625 168.652344 L 229.875 168.648438 L 229.691406 168.636719 L 229.515625 168.621094 L 229.339844 168.597656 L 229.171875 168.574219 L 229.007812 168.542969 L 228.851562 168.507812 L 228.699219 168.46875 L 228.550781 168.425781 L 228.40625 168.378906 L 228.269531 168.328125 L 228.136719 168.273438 L 228.007812 168.21875 L 227.882812 168.15625 L 227.765625 168.09375 L 227.648438 168.027344 L 227.429688 167.878906 L 227.328125 167.804688 L 227.230469 167.722656 L 227.136719 167.636719 L 227.046875 167.546875 L 226.960938 167.457031 L 226.878906 167.367188 L 226.800781 167.269531 L 226.726562 167.171875 L 226.65625 167.070312 L 226.589844 166.96875 L 226.527344 166.863281 L 226.417969 166.644531 L 226.371094 166.535156 L 226.324219 166.421875 L 226.28125 166.308594 L 226.203125 166.074219 L 226.140625 165.832031 L 226.117188 165.710938 L 227.714844 165.527344 L 227.734375 165.597656 L 227.757812 165.667969 L 227.78125 165.734375 L 227.804688 165.804688 L 227.832031 165.875 L 227.859375 165.941406 L 227.890625 166.011719 L 227.953125 166.144531 L 228.023438 166.277344 L 228.0625 166.339844 L 228.105469 166.402344 L 228.148438 166.460938 L 228.195312 166.523438 L 228.242188 166.582031 L 228.292969 166.636719 L 228.347656 166.695312 L 228.402344 166.746094 L 228.460938 166.800781 L 228.523438 166.851562 L 228.589844 166.898438 L 228.660156 166.945312 L 228.800781 167.03125 L 228.878906 167.074219 L 228.957031 167.109375 L 229.039062 167.148438 L 229.121094 167.183594 L 229.210938 167.214844 L 229.300781 167.242188 L 229.394531 167.269531 L 229.597656 167.308594 L 229.703125 167.328125 L 229.8125 167.339844 L 229.925781 167.351562 L 230.042969 167.359375 L 230.164062 167.363281 L 230.410156 167.363281 L 230.53125 167.355469 L 230.648438 167.347656 L 230.765625 167.335938 L 230.875 167.316406 L 230.988281 167.296875 L 231.09375 167.273438 L 231.203125 167.246094 L 231.304688 167.214844 L 231.40625 167.179688 L 231.503906 167.140625 L 231.601562 167.09375 L 231.695312 167.046875 L 231.785156 166.996094 L 231.871094 166.941406 L 232.035156 166.824219 L 232.113281 166.757812 L 232.1875 166.6875 L 232.257812 166.617188 L 232.328125 166.542969 L 232.460938 166.378906 L 232.578125 166.207031 L 232.632812 166.113281 L 232.730469 165.917969 L 232.773438 165.816406 L 232.8125 165.710938 L 232.882812 165.492188 L 232.9375 165.257812 L 232.957031 165.136719 L 232.976562 165.011719 L 233 164.753906 L 233.007812 164.480469 L 233.003906 164.367188 L 233 164.257812 L 232.976562 164.039062 L 232.960938 163.933594 L 232.941406 163.832031 L 232.886719 163.628906 L 232.855469 163.53125 L 232.820312 163.433594 L 232.742188 163.246094 L 232.695312 163.15625 L 232.648438 163.070312 L 232.597656 162.988281 L 232.542969 162.90625 L 232.425781 162.75 L 232.292969 162.609375 L 232.222656 162.539062 L 232.152344 162.476562 L 231.996094 162.351562 L 231.824219 162.242188 L 231.738281 162.195312 L 231.644531 162.148438 L 231.550781 162.105469 L 231.449219 162.0625 L 231.351562 162.027344 L 231.140625 161.964844 L 231.035156 161.941406 L 230.921875 161.917969 L 230.808594 161.902344 L 230.691406 161.886719 L 230.574219 161.878906 L 230.449219 161.871094 L 230.246094 161.871094 L 230.167969 161.875 L 229.945312 161.886719 L 229.871094 161.894531 L 229.800781 161.90625 L 229.730469 161.914062 L 229.664062 161.925781 L 229.398438 161.988281 L 229.335938 162.003906 L 229.210938 162.042969 L 229.148438 162.066406 L 229.089844 162.085938 L 228.972656 162.132812 L 228.914062 162.160156 L 228.859375 162.183594 L 228.808594 162.210938 L 228.753906 162.238281 L 228.703125 162.269531 L 228.648438 162.296875 L 228.597656 162.328125 L 228.550781 162.359375 L 228.5 162.390625 L 228.453125 162.425781 L 228.40625 162.457031 L 228.320312 162.519531 L 228.273438 162.554688 L 228.230469 162.585938 L 228.144531 162.65625 L 228.105469 162.6875 L 228.0625 162.722656 L 228.023438 162.757812 L 226.476562 162.757812 L 226.890625 156.097656 L 233.929688 156.097656 L 233.929688 157.441406 L 228.332031 157.441406 L 228.09375 161.371094 L 228.179688 161.304688 L 228.269531 161.242188 L 228.363281 161.183594 L 228.464844 161.125 L 228.566406 161.070312 L 228.785156 160.960938 L 228.902344 160.910156 L 229.023438 160.863281 L 229.148438 160.816406 L 229.277344 160.769531 L 229.410156 160.730469 L 229.546875 160.695312 L 229.691406 160.664062 L 229.839844 160.636719 L 229.992188 160.617188 L 230.148438 160.601562 L 230.3125 160.589844 L 230.480469 160.582031 L 230.652344 160.578125 L 230.832031 160.582031 L 231.011719 160.589844 L 231.1875 160.605469 L 231.359375 160.625 L 231.527344 160.648438 L 231.691406 160.679688 L 231.851562 160.714844 L 232.007812 160.757812 L 232.164062 160.804688 L 232.3125 160.859375 L 232.457031 160.917969 L 232.597656 160.980469 L 232.734375 161.050781 L 232.867188 161.121094 L 232.996094 161.199219 L 233.117188 161.28125 L 233.238281 161.371094 L 233.351562 161.460938 L 233.460938 161.558594 L 233.570312 161.660156 L 233.667969 161.761719 L 233.765625 161.871094 L 233.859375 161.984375 L 233.945312 162.101562 L 234.027344 162.21875 L 234.105469 162.34375 L 234.179688 162.472656 L 234.246094 162.605469 L 234.308594 162.742188 L 234.367188 162.882812 L 234.421875 163.023438 L 234.46875 163.171875 L 234.511719 163.320312 L 234.546875 163.472656 L 234.578125 163.628906 L 234.605469 163.785156 L 234.625 163.945312 L 234.636719 164.109375 L 234.648438 164.277344 Z M 234.648438 164.445312 "/>
<path style=" stroke:none;fill-rule:nonzero;fill:rgb(0%,0%,0%);fill-opacity:1;" d="M 263.90625 164.429688 L 263.902344 164.613281 L 263.894531 164.796875 L 263.882812 164.972656 L 263.863281 165.148438 L 263.839844 165.324219 L 263.8125 165.492188 L 263.777344 165.660156 L 263.738281 165.824219 L 263.691406 165.984375 L 263.644531 166.140625 L 263.589844 166.292969 L 263.53125 166.441406 L 263.46875 166.585938 L 263.398438 166.726562 L 263.324219 166.863281 L 263.246094 166.996094 L 263.160156 167.121094 L 263.070312 167.246094 L 262.976562 167.363281 L 262.878906 167.476562 L 262.777344 167.585938 L 262.667969 167.691406 L 262.554688 167.789062 L 262.4375 167.882812 L 262.316406 167.972656 L 262.1875 168.058594 L 262.054688 168.136719 L 261.917969 168.210938 L 261.777344 168.28125 L 261.628906 168.347656 L 261.480469 168.40625 L 261.324219 168.457031 L 261.160156 168.503906 L 260.996094 168.546875 L 260.824219 168.578125 L 260.652344 168.605469 L 260.472656 168.628906 L 260.289062 168.644531 L 260.101562 168.652344 L 259.90625 168.65625 L 259.695312 168.652344 L 259.484375 168.640625 L 259.285156 168.617188 L 259.085938 168.589844 L 258.894531 168.550781 L 258.707031 168.507812 L 258.527344 168.453125 L 258.351562 168.390625 L 258.183594 168.320312 L 258.019531 168.242188 L 257.859375 168.15625 L 257.707031 168.0625 L 257.558594 167.960938 L 257.414062 167.855469 L 257.277344 167.738281 L 257.144531 167.617188 L 257.019531 167.488281 L 256.898438 167.351562 L 256.785156 167.207031 L 256.671875 167.054688 L 256.570312 166.894531 L 256.46875 166.730469 L 256.375 166.554688 L 256.285156 166.375 L 256.203125 166.1875 L 256.125 165.992188 L 256.050781 165.792969 L 255.984375 165.585938 L 255.921875 165.371094 L 255.863281 165.148438 L 255.816406 164.917969 L 255.769531 164.683594 L 255.730469 164.441406 L 255.695312 164.191406 L 255.667969 163.9375 L 255.644531 163.675781 L 255.625 163.410156 L 255.613281 163.136719 L 255.605469 162.859375 L 255.601562 162.574219 L 255.605469 162.246094 L 255.613281 161.929688 L 255.628906 161.617188 L 255.648438 161.316406 L 255.675781 161.023438 L 255.707031 160.738281 L 255.746094 160.457031 L 255.792969 160.1875 L 255.84375 159.925781 L 255.898438 159.671875 L 255.964844 159.429688 L 256.035156 159.191406 L 256.109375 158.960938 L 256.1875 158.742188 L 256.273438 158.527344 L 256.363281 158.324219 L 256.460938 158.128906 L 256.5625 157.941406 L 256.667969 157.761719 L 256.777344 157.589844 L 256.894531 157.425781 L 257.015625 157.273438 L 257.144531 157.125 L 257.273438 156.988281 L 257.410156 156.859375 L 257.554688 156.738281 L 257.699219 156.625 L 257.851562 156.519531 L 258.007812 156.421875 L 258.167969 156.332031 L 258.335938 156.253906 L 258.507812 156.183594 L 258.683594 156.117188 L 258.863281 156.0625 L 259.046875 156.015625 L 259.234375 155.980469 L 259.425781 155.949219 L 259.625 155.929688 L 259.824219 155.914062 L 260.03125 155.910156 L 260.28125 155.917969 L 260.402344 155.921875 L 260.644531 155.945312 L 260.878906 155.976562 L 260.992188 155.996094 L 261.21875 156.042969 L 261.328125 156.070312 L 261.433594 156.101562 L 261.539062 156.136719 L 261.644531 156.175781 L 261.746094 156.21875 L 261.84375 156.261719 L 261.941406 156.308594 L 262.035156 156.359375 L 262.128906 156.417969 L 262.21875 156.472656 L 262.398438 156.597656 L 262.484375 156.664062 L 262.648438 156.8125 L 262.726562 156.890625 L 262.804688 156.976562 L 262.878906 157.0625 L 262.949219 157.152344 L 263.019531 157.246094 L 263.152344 157.449219 L 263.269531 157.667969 L 263.328125 157.785156 L 263.378906 157.90625 L 263.429688 158.03125 L 263.476562 158.160156 L 263.523438 158.296875 L 263.5625 158.433594 L 262.050781 158.707031 L 262 158.550781 L 261.941406 158.40625 L 261.878906 158.265625 L 261.808594 158.136719 L 261.730469 158.019531 L 261.648438 157.90625 L 261.5625 157.804688 L 261.46875 157.714844 L 261.367188 157.628906 L 261.261719 157.554688 L 261.152344 157.488281 L 261.039062 157.425781 L 260.921875 157.371094 L 260.804688 157.324219 L 260.679688 157.285156 L 260.554688 157.253906 L 260.425781 157.226562 L 260.289062 157.210938 L 260.152344 157.199219 L 260.011719 157.195312 L 259.882812 157.199219 L 259.757812 157.207031 L 259.632812 157.222656 L 259.511719 157.242188 L 259.277344 157.304688 L 259.164062 157.34375 L 259.050781 157.390625 L 258.941406 157.445312 L 258.835938 157.503906 L 258.730469 157.566406 L 258.628906 157.636719 L 258.535156 157.714844 L 258.4375 157.796875 L 258.347656 157.886719 L 258.257812 157.980469 L 258.175781 158.082031 L 258.09375 158.191406 L 258.015625 158.304688 L 257.9375 158.425781 L 257.867188 158.550781 L 257.796875 158.679688 L 257.734375 158.816406 L 257.671875 158.960938 L 257.613281 159.109375 L 257.554688 159.265625 L 257.503906 159.429688 L 257.457031 159.597656 L 257.410156 159.773438 L 257.367188 159.953125 L 257.332031 160.140625 L 257.296875 160.335938 L 257.269531 160.535156 L 257.242188 160.742188 L 257.222656 160.953125 L 257.207031 161.171875 L 257.191406 161.398438 L 257.183594 161.628906 L 257.175781 161.863281 L 257.175781 162.109375 L 257.265625 161.953125 L 257.359375 161.804688 L 257.464844 161.664062 L 257.574219 161.53125 L 257.691406 161.40625 L 257.816406 161.289062 L 257.949219 161.175781 L 258.089844 161.074219 L 258.234375 160.980469 L 258.386719 160.894531 L 258.546875 160.816406 L 258.710938 160.742188 L 258.878906 160.679688 L 259.050781 160.625 L 259.226562 160.578125 L 259.40625 160.539062 L 259.59375 160.511719 L 259.785156 160.488281 L 259.980469 160.476562 L 260.179688 160.472656 L 260.347656 160.476562 L 260.511719 160.484375 L 260.671875 160.496094 L 260.828125 160.515625 L 260.984375 160.542969 L 261.136719 160.570312 L 261.285156 160.605469 L 261.429688 160.648438 L 261.570312 160.695312 L 261.710938 160.746094 L 261.84375 160.800781 L 261.976562 160.863281 L 262.101562 160.929688 L 262.226562 161.003906 L 262.34375 161.078125 L 262.460938 161.160156 L 262.570312 161.246094 L 262.78125 161.433594 L 262.878906 161.535156 L 262.972656 161.640625 L 263.066406 161.75 L 263.152344 161.863281 L 263.234375 161.980469 L 263.3125 162.105469 L 263.386719 162.230469 L 263.457031 162.363281 L 263.519531 162.5 L 263.578125 162.640625 L 263.632812 162.785156 L 263.6875 162.933594 L 263.730469 163.082031 L 263.773438 163.238281 L 263.808594 163.398438 L 263.839844 163.558594 L 263.863281 163.726562 L 263.882812 163.894531 L 263.894531 164.070312 L 263.902344 164.246094 Z M 262.296875 164.5 L 262.296875 164.371094 L 262.292969 164.246094 L 262.285156 164.125 L 262.273438 164.003906 L 262.257812 163.886719 L 262.242188 163.773438 L 262.222656 163.660156 L 262.195312 163.550781 L 262.171875 163.441406 L 262.140625 163.339844 L 262.105469 163.234375 L 262.070312 163.136719 L 262.03125 163.042969 L 261.988281 162.949219 L 261.941406 162.859375 L 261.894531 162.773438 L 261.785156 162.609375 L 261.726562 162.53125 L 261.664062 162.460938 L 261.601562 162.386719 L 261.460938 162.253906 L 261.386719 162.191406 L 261.3125 162.132812 L 261.230469 162.078125 L 261.148438 162.027344 L 261.0625 161.980469 L 260.976562 161.9375 L 260.789062 161.859375 L 260.691406 161.824219 L 260.589844 161.792969 L 260.488281 161.769531 L 260.378906 161.746094 L 260.269531 161.726562 L 260.042969 161.703125 L 259.921875 161.695312 L 259.714844 161.695312 L 259.628906 161.699219 L 259.457031 161.714844 L 259.371094 161.726562 L 259.28125 161.742188 L 259.195312 161.757812 L 259.109375 161.777344 L 259.019531 161.800781 L 258.933594 161.828125 L 258.84375 161.851562 L 258.757812 161.882812 L 258.675781 161.914062 L 258.511719 161.992188 L 258.433594 162.035156 L 258.355469 162.082031 L 258.28125 162.128906 L 258.132812 162.238281 L 258.0625 162.296875 L 257.996094 162.359375 L 257.933594 162.425781 L 257.871094 162.496094 L 257.8125 162.566406 L 257.753906 162.644531 L 257.699219 162.722656 L 257.597656 162.894531 L 257.550781 162.988281 L 257.511719 163.082031 L 257.472656 163.179688 L 257.410156 163.390625 L 257.386719 163.503906 L 257.367188 163.617188 L 257.351562 163.738281 L 257.339844 163.863281 L 257.335938 163.988281 L 257.332031 164.121094 L 257.335938 164.257812 L 257.339844 164.390625 L 257.347656 164.523438 L 257.359375 164.65625 L 257.375 164.785156 L 257.394531 164.910156 L 257.417969 165.039062 L 257.445312 165.160156 L 257.476562 165.285156 L 257.507812 165.402344 L 257.542969 165.519531 L 257.585938 165.632812 L 257.671875 165.851562 L 257.722656 165.957031 L 257.773438 166.058594 L 257.828125 166.15625 L 257.945312 166.34375 L 258.007812 166.433594 L 258.078125 166.519531 L 258.148438 166.601562 L 258.222656 166.679688 L 258.296875 166.753906 L 258.375 166.824219 L 258.457031 166.894531 L 258.542969 166.957031 L 258.628906 167.015625 L 258.71875 167.074219 L 258.808594 167.125 L 258.902344 167.175781 L 259 167.21875 L 259.097656 167.257812 L 259.199219 167.289062 L 259.304688 167.316406 L 259.410156 167.339844 L 259.515625 167.359375 L 259.628906 167.371094 L 259.738281 167.378906 L 259.855469 167.382812 L 259.96875 167.378906 L 260.078125 167.375 L 260.1875 167.363281 L 260.292969 167.351562 L 260.496094 167.3125 L 260.691406 167.257812 L 260.785156 167.226562 L 260.875 167.1875 L 260.964844 167.144531 L 261.050781 167.101562 L 261.136719 167.050781 L 261.21875 167 L 261.296875 166.945312 L 261.371094 166.886719 L 261.445312 166.824219 L 261.515625 166.757812 L 261.648438 166.617188 L 261.710938 166.539062 L 261.769531 166.460938 L 261.878906 166.289062 L 261.925781 166.199219 L 262.019531 166.011719 L 262.097656 165.808594 L 262.132812 165.703125 L 262.164062 165.59375 L 262.191406 165.484375 L 262.214844 165.367188 L 262.238281 165.253906 L 262.257812 165.132812 L 262.273438 165.011719 L 262.285156 164.886719 L 262.292969 164.761719 L 262.296875 164.628906 Z M 262.296875 164.5 "/>
<path style=" stroke:none;fill-rule:nonzero;fill:rgb(0%,0%,0%);fill-opacity:1;" d="M 293.085938 157.378906 L 292.898438 157.664062 L 292.71875 157.945312 L 292.539062 158.222656 L 292.363281 158.5 L 292.191406 158.777344 L 292.019531 159.050781 L 291.691406 159.589844 L 291.527344 159.855469 L 291.371094 160.121094 L 291.214844 160.382812 L 291.066406 160.648438 L 290.921875 160.910156 L 290.78125 161.171875 L 290.644531 161.4375 L 290.511719 161.703125 L 290.382812 161.96875 L 290.140625 162.5 L 290.027344 162.765625 L 289.917969 163.035156 L 289.8125 163.300781 L 289.710938 163.570312 L 289.617188 163.839844 L 289.523438 164.113281 L 289.441406 164.386719 L 289.359375 164.664062 L 289.285156 164.941406 L 289.214844 165.21875 L 289.148438 165.5 L 289.089844 165.78125 L 289.035156 166.066406 L 288.992188 166.355469 L 288.949219 166.648438 L 288.917969 166.945312 L 288.890625 167.242188 L 288.867188 167.546875 L 288.851562 167.855469 L 288.84375 168.164062 L 288.839844 168.480469 L 287.1875 168.480469 L 287.191406 168.183594 L 287.203125 167.886719 L 287.21875 167.59375 L 287.242188 167.300781 L 287.273438 167.011719 L 287.3125 166.71875 L 287.359375 166.429688 L 287.414062 166.144531 L 287.472656 165.855469 L 287.539062 165.570312 L 287.6875 165 L 287.773438 164.714844 L 287.859375 164.433594 L 287.953125 164.152344 L 288.050781 163.875 L 288.152344 163.59375 L 288.257812 163.316406 L 288.371094 163.042969 L 288.488281 162.765625 L 288.609375 162.492188 L 288.734375 162.21875 L 288.863281 161.945312 L 288.996094 161.671875 L 289.132812 161.402344 L 289.273438 161.128906 L 289.417969 160.859375 L 289.566406 160.59375 L 289.71875 160.324219 L 289.875 160.058594 L 290.035156 159.796875 L 290.195312 159.53125 L 290.359375 159.265625 L 290.523438 159.003906 L 290.859375 158.480469 L 291.03125 158.21875 L 291.203125 157.960938 L 291.378906 157.699219 L 291.554688 157.441406 L 284.902344 157.441406 L 284.902344 156.097656 L 293.085938 156.097656 Z M 293.085938 157.378906 "/>
<path style=" stroke:none;fill-rule:nonzero;fill:rgb(0%,0%,0%);fill-opacity:1;" d="M 322.5 165.027344 L 322.496094 165.183594 L 322.488281 165.335938 L 322.476562 165.488281 L 322.460938 165.640625 L 322.4375 165.785156 L 322.410156 165.929688 L 322.375 166.074219 L 322.335938 166.210938 L 322.292969 166.351562 L 322.246094 166.484375 L 322.136719 166.742188 L 322.074219 166.863281 L 322.003906 166.984375 L 321.929688 167.101562 L 321.851562 167.210938 L 321.765625 167.320312 L 321.675781 167.425781 L 321.582031 167.527344 L 321.480469 167.628906 L 321.375 167.722656 L 321.265625 167.8125 L 321.148438 167.898438 L 321.027344 167.980469 L 320.898438 168.058594 L 320.765625 168.132812 L 320.625 168.199219 L 320.480469 168.265625 L 320.328125 168.328125 L 320.171875 168.382812 L 320.007812 168.433594 L 319.839844 168.480469 L 319.664062 168.523438 L 319.484375 168.558594 L 319.296875 168.585938 L 319.105469 168.613281 L 318.910156 168.632812 L 318.707031 168.644531 L 318.496094 168.652344 L 318.28125 168.65625 L 318.066406 168.652344 L 317.855469 168.644531 L 317.652344 168.632812 L 317.457031 168.613281 L 317.265625 168.585938 L 317.078125 168.558594 L 316.898438 168.523438 L 316.722656 168.480469 L 316.554688 168.433594 L 316.390625 168.382812 L 316.234375 168.328125 L 316.085938 168.265625 L 315.941406 168.203125 L 315.800781 168.132812 L 315.667969 168.058594 L 315.539062 167.984375 L 315.414062 167.902344 L 315.292969 167.816406 L 315.179688 167.730469 L 315.074219 167.636719 L 314.972656 167.539062 L 314.875 167.4375 L 314.785156 167.332031 L 314.699219 167.222656 L 314.621094 167.109375 L 314.546875 166.992188 L 314.476562 166.875 L 314.351562 166.625 L 314.300781 166.492188 L 314.253906 166.359375 L 314.210938 166.222656 L 314.140625 165.941406 L 314.09375 165.652344 L 314.074219 165.503906 L 314.0625 165.351562 L 314.054688 165.199219 L 314.054688 164.910156 L 314.0625 164.777344 L 314.070312 164.652344 L 314.085938 164.527344 L 314.105469 164.402344 L 314.125 164.285156 L 314.152344 164.167969 L 314.183594 164.054688 L 314.21875 163.945312 L 314.257812 163.839844 L 314.300781 163.734375 L 314.34375 163.632812 L 314.394531 163.535156 L 314.445312 163.441406 L 314.5 163.347656 L 314.554688 163.261719 L 314.679688 163.089844 L 314.742188 163.011719 L 314.808594 162.933594 L 314.878906 162.859375 L 314.953125 162.785156 L 315.027344 162.714844 L 315.105469 162.648438 L 315.183594 162.585938 L 315.261719 162.527344 L 315.34375 162.46875 L 315.429688 162.417969 L 315.511719 162.367188 L 315.691406 162.273438 L 315.78125 162.230469 L 315.871094 162.191406 L 315.964844 162.15625 L 316.054688 162.121094 L 316.148438 162.089844 L 316.242188 162.0625 L 316.335938 162.039062 L 316.429688 162.019531 L 316.523438 162.003906 L 316.523438 161.96875 L 316.320312 161.914062 L 316.125 161.84375 L 316.03125 161.808594 L 315.9375 161.765625 L 315.847656 161.722656 L 315.761719 161.675781 L 315.675781 161.625 L 315.511719 161.515625 L 315.433594 161.457031 L 315.359375 161.398438 L 315.21875 161.273438 L 315.085938 161.140625 L 315.023438 161.070312 L 314.90625 160.921875 L 314.851562 160.84375 L 314.800781 160.761719 L 314.753906 160.683594 L 314.707031 160.597656 L 314.664062 160.515625 L 314.625 160.429688 L 314.585938 160.339844 L 314.550781 160.253906 L 314.515625 160.160156 L 314.484375 160.070312 L 314.457031 159.976562 L 314.433594 159.878906 L 314.414062 159.785156 L 314.394531 159.6875 L 314.378906 159.589844 L 314.367188 159.492188 L 314.355469 159.390625 L 314.347656 159.289062 L 314.34375 159.1875 L 314.34375 159.085938 L 314.347656 158.957031 L 314.355469 158.828125 L 314.367188 158.703125 L 314.382812 158.578125 L 314.40625 158.453125 L 314.433594 158.332031 L 314.464844 158.210938 L 314.5 158.09375 L 314.542969 157.976562 L 314.589844 157.863281 L 314.644531 157.75 L 314.703125 157.636719 L 314.765625 157.527344 L 314.832031 157.421875 L 314.902344 157.320312 L 314.980469 157.21875 L 315.0625 157.125 L 315.148438 157.03125 L 315.335938 156.851562 L 315.4375 156.765625 L 315.542969 156.683594 L 315.652344 156.605469 L 315.769531 156.53125 L 315.886719 156.460938 L 316.011719 156.394531 L 316.140625 156.332031 L 316.277344 156.273438 L 316.414062 156.21875 L 316.558594 156.167969 L 316.707031 156.117188 L 316.859375 156.074219 L 317.015625 156.035156 L 317.179688 156.003906 L 317.34375 155.976562 L 317.515625 155.953125 L 317.691406 155.933594 L 317.871094 155.921875 L 318.058594 155.914062 L 318.246094 155.910156 L 318.445312 155.914062 L 318.640625 155.921875 L 318.828125 155.933594 L 319.011719 155.953125 L 319.1875 155.976562 L 319.359375 156.003906 L 319.527344 156.035156 L 319.6875 156.074219 L 319.84375 156.117188 L 319.996094 156.167969 L 320.140625 156.21875 L 320.285156 156.277344 L 320.417969 156.335938 L 320.550781 156.398438 L 320.675781 156.46875 L 320.796875 156.539062 L 320.910156 156.613281 L 321.023438 156.691406 L 321.125 156.773438 L 321.226562 156.859375 L 321.414062 157.039062 L 321.496094 157.132812 L 321.578125 157.230469 L 321.652344 157.328125 L 321.722656 157.429688 L 321.789062 157.535156 L 321.851562 157.644531 L 321.90625 157.757812 L 321.957031 157.871094 L 322 157.988281 L 322.039062 158.105469 L 322.074219 158.226562 L 322.105469 158.347656 L 322.132812 158.46875 L 322.15625 158.59375 L 322.171875 158.71875 L 322.183594 158.84375 L 322.191406 158.972656 L 322.191406 159.203125 L 322.1875 159.304688 L 322.179688 159.402344 L 322.167969 159.503906 L 322.15625 159.601562 L 322.136719 159.699219 L 322.121094 159.792969 L 322.097656 159.890625 L 322.042969 160.078125 L 322.011719 160.171875 L 321.980469 160.261719 L 321.945312 160.351562 L 321.867188 160.523438 L 321.824219 160.609375 L 321.777344 160.691406 L 321.726562 160.773438 L 321.675781 160.851562 L 321.621094 160.929688 L 321.566406 161.003906 L 321.507812 161.078125 L 321.445312 161.148438 L 321.3125 161.28125 L 321.242188 161.347656 L 321.171875 161.40625 L 321.09375 161.46875 L 321.015625 161.523438 L 320.9375 161.582031 L 320.851562 161.632812 L 320.769531 161.679688 L 320.589844 161.765625 L 320.5 161.804688 L 320.402344 161.839844 L 320.304688 161.871094 L 320.203125 161.902344 L 320.101562 161.925781 L 319.996094 161.949219 L 319.996094 161.984375 L 320.101562 162.003906 L 320.207031 162.027344 L 320.308594 162.050781 L 320.410156 162.078125 L 320.511719 162.109375 L 320.707031 162.179688 L 320.988281 162.308594 L 321.078125 162.355469 L 321.167969 162.40625 L 321.25 162.460938 L 321.335938 162.519531 L 321.414062 162.578125 L 321.492188 162.640625 L 321.566406 162.707031 L 321.640625 162.777344 L 321.710938 162.847656 L 321.78125 162.925781 L 321.90625 163.082031 L 321.96875 163.164062 L 322.023438 163.25 L 322.078125 163.339844 L 322.179688 163.527344 L 322.222656 163.625 L 322.265625 163.726562 L 322.308594 163.832031 L 322.34375 163.9375 L 322.375 164.046875 L 322.40625 164.160156 L 322.429688 164.273438 L 322.453125 164.394531 L 322.484375 164.636719 L 322.5 164.894531 Z M 320.550781 159.191406 L 320.546875 159.097656 L 320.539062 158.917969 L 320.527344 158.828125 L 320.519531 158.742188 L 320.488281 158.578125 L 320.449219 158.414062 L 320.425781 158.335938 L 320.402344 158.261719 L 320.375 158.1875 L 320.34375 158.117188 L 320.308594 158.046875 L 320.273438 157.980469 L 320.230469 157.914062 L 320.1875 157.851562 L 320.09375 157.734375 L 319.984375 157.625 L 319.921875 157.570312 L 319.859375 157.519531 L 319.792969 157.472656 L 319.726562 157.429688 L 319.652344 157.386719 L 319.574219 157.347656 L 319.496094 157.3125 L 319.414062 157.277344 L 319.328125 157.246094 L 319.238281 157.21875 L 319.144531 157.191406 L 319.046875 157.167969 L 318.941406 157.144531 L 318.835938 157.128906 L 318.726562 157.113281 L 318.613281 157.105469 L 318.496094 157.097656 L 318.371094 157.089844 L 318.125 157.089844 L 318.003906 157.097656 L 317.777344 157.113281 L 317.566406 157.144531 L 317.371094 157.191406 L 317.191406 157.246094 L 317.105469 157.277344 L 317.023438 157.3125 L 316.945312 157.347656 L 316.871094 157.386719 L 316.796875 157.429688 L 316.726562 157.472656 L 316.660156 157.519531 L 316.597656 157.570312 L 316.480469 157.679688 L 316.425781 157.734375 L 316.375 157.792969 L 316.328125 157.851562 L 316.285156 157.914062 L 316.207031 158.046875 L 316.171875 158.117188 L 316.140625 158.1875 L 316.109375 158.261719 L 316.085938 158.335938 L 316.0625 158.414062 L 316.039062 158.496094 L 316.019531 158.578125 L 316.003906 158.660156 L 315.992188 158.742188 L 315.980469 158.828125 L 315.964844 159.007812 L 315.960938 159.097656 L 315.960938 159.265625 L 315.96875 159.414062 L 315.984375 159.5625 L 315.996094 159.640625 L 316.007812 159.714844 L 316.023438 159.792969 L 316.039062 159.867188 L 316.078125 160.023438 L 316.101562 160.097656 L 316.128906 160.171875 L 316.160156 160.242188 L 316.195312 160.316406 L 316.230469 160.382812 L 316.269531 160.453125 L 316.3125 160.519531 L 316.359375 160.585938 L 316.460938 160.710938 L 316.578125 160.828125 L 316.710938 160.9375 L 316.785156 160.988281 L 316.859375 161.035156 L 316.941406 161.082031 L 317.023438 161.125 L 317.113281 161.167969 L 317.203125 161.207031 L 317.300781 161.242188 L 317.402344 161.269531 L 317.511719 161.296875 L 317.625 161.320312 L 317.742188 161.335938 L 317.863281 161.351562 L 317.992188 161.363281 L 318.125 161.367188 L 318.265625 161.371094 L 318.410156 161.367188 L 318.550781 161.363281 L 318.683594 161.351562 L 318.8125 161.335938 L 318.9375 161.320312 L 319.050781 161.296875 L 319.164062 161.269531 L 319.269531 161.242188 L 319.367188 161.207031 L 319.460938 161.167969 L 319.632812 161.082031 L 319.714844 161.035156 L 319.789062 160.988281 L 319.859375 160.9375 L 319.929688 160.882812 L 319.992188 160.828125 L 320.050781 160.769531 L 320.105469 160.710938 L 320.199219 160.585938 L 320.246094 160.519531 L 320.285156 160.453125 L 320.320312 160.382812 L 320.355469 160.316406 L 320.386719 160.242188 L 320.410156 160.171875 L 320.433594 160.097656 L 320.453125 160.023438 L 320.484375 159.867188 L 320.5 159.792969 L 320.511719 159.714844 L 320.519531 159.640625 L 320.527344 159.5625 L 320.542969 159.414062 L 320.546875 159.339844 L 320.546875 159.265625 Z M 320.855469 164.875 L 320.855469 164.789062 L 320.851562 164.699219 L 320.84375 164.609375 L 320.835938 164.523438 L 320.8125 164.351562 L 320.796875 164.265625 L 320.777344 164.183594 L 320.757812 164.097656 L 320.734375 164.015625 L 320.707031 163.933594 L 320.675781 163.851562 L 320.644531 163.773438 L 320.605469 163.695312 L 320.566406 163.621094 L 320.523438 163.546875 L 320.476562 163.476562 L 320.425781 163.40625 L 320.371094 163.339844 L 320.3125 163.277344 L 320.25 163.214844 L 320.183594 163.152344 L 320.113281 163.09375 L 320.039062 163.039062 L 319.960938 162.984375 L 319.878906 162.933594 L 319.699219 162.839844 L 319.601562 162.796875 L 319.503906 162.757812 L 319.398438 162.71875 L 319.292969 162.6875 L 319.179688 162.65625 L 319.0625 162.628906 L 318.9375 162.605469 L 318.808594 162.589844 L 318.675781 162.574219 L 318.539062 162.5625 L 318.394531 162.558594 L 318.246094 162.554688 L 318.109375 162.558594 L 317.976562 162.5625 L 317.847656 162.574219 L 317.722656 162.589844 L 317.601562 162.605469 L 317.484375 162.628906 L 317.375 162.65625 L 317.265625 162.6875 L 317.160156 162.71875 L 317.058594 162.757812 L 316.964844 162.796875 L 316.875 162.839844 L 316.785156 162.886719 L 316.699219 162.933594 L 316.621094 162.984375 L 316.542969 163.039062 L 316.46875 163.09375 L 316.398438 163.152344 L 316.332031 163.214844 L 316.269531 163.277344 L 316.210938 163.34375 L 316.15625 163.410156 L 316.105469 163.480469 L 316.054688 163.554688 L 316.007812 163.628906 L 315.890625 163.863281 L 315.859375 163.949219 L 315.828125 164.03125 L 315.800781 164.117188 L 315.777344 164.203125 L 315.738281 164.375 L 315.722656 164.464844 L 315.710938 164.550781 L 315.695312 164.730469 L 315.6875 164.910156 L 315.695312 165.136719 L 315.703125 165.246094 L 315.710938 165.351562 L 315.722656 165.457031 L 315.738281 165.5625 L 315.777344 165.765625 L 315.800781 165.863281 L 315.828125 165.957031 L 315.859375 166.050781 L 315.890625 166.140625 L 315.929688 166.226562 L 315.96875 166.308594 L 316.011719 166.394531 L 316.058594 166.472656 L 316.109375 166.550781 L 316.160156 166.625 L 316.277344 166.765625 L 316.339844 166.832031 L 316.40625 166.894531 L 316.480469 166.953125 L 316.554688 167.007812 L 316.632812 167.0625 L 316.714844 167.113281 L 316.804688 167.160156 L 316.894531 167.203125 L 316.988281 167.246094 L 317.085938 167.285156 L 317.1875 167.320312 L 317.292969 167.351562 L 317.40625 167.378906 L 317.519531 167.402344 L 317.761719 167.441406 L 317.890625 167.453125 L 318.023438 167.460938 L 318.160156 167.46875 L 318.441406 167.46875 L 318.578125 167.460938 L 318.710938 167.453125 L 318.839844 167.441406 L 319.082031 167.402344 L 319.195312 167.378906 L 319.304688 167.351562 L 319.410156 167.320312 L 319.511719 167.285156 L 319.609375 167.246094 L 319.789062 167.160156 L 319.875 167.113281 L 319.957031 167.0625 L 320.105469 166.953125 L 320.175781 166.894531 L 320.242188 166.832031 L 320.304688 166.765625 L 320.414062 166.625 L 320.464844 166.546875 L 320.515625 166.472656 L 320.558594 166.390625 L 320.597656 166.308594 L 320.636719 166.222656 L 320.699219 166.042969 L 320.726562 165.949219 L 320.75 165.851562 L 320.773438 165.75 L 320.792969 165.648438 L 320.808594 165.546875 L 320.824219 165.4375 L 320.835938 165.332031 L 320.84375 165.21875 L 320.851562 165.109375 L 320.855469 164.992188 Z M 320.855469 164.875 "/>
<path style=" stroke:none;fill-rule:nonzero;fill:rgb(0%,0%,0%);fill-opacity:1;" d="M 351.722656 162.039062 L 351.71875 162.363281 L 351.710938 162.683594 L 351.695312 162.992188 L 351.671875 163.292969 L 351.644531 163.589844 L 351.609375 163.875 L 351.566406 164.152344 L 351.519531 164.421875 L 351.464844 164.683594 L 351.40625 164.9375 L 351.339844 165.183594 L 351.273438 165.417969 L 351.195312 165.644531 L 351.117188 165.863281 L 351.03125 166.074219 L 350.9375 166.277344 L 350.839844 166.46875 L 350.738281 166.65625 L 350.632812 166.835938 L 350.519531 167.003906 L 350.398438 167.164062 L 350.277344 167.316406 L 350.148438 167.460938 L 350.011719 167.597656 L 349.875 167.726562 L 349.730469 167.847656 L 349.582031 167.957031 L 349.425781 168.0625 L 349.265625 168.15625 L 349.101562 168.242188 L 348.9375 168.320312 L 348.765625 168.390625 L 348.589844 168.453125 L 348.410156 168.507812 L 348.222656 168.550781 L 348.035156 168.589844 L 347.84375 168.617188 L 347.644531 168.640625 L 347.445312 168.652344 L 347.238281 168.65625 L 347.097656 168.652344 L 346.960938 168.648438 L 346.824219 168.640625 L 346.691406 168.632812 L 346.5625 168.617188 L 346.4375 168.601562 L 346.3125 168.582031 L 346.070312 168.535156 L 345.957031 168.507812 L 345.84375 168.476562 L 345.734375 168.445312 L 345.625 168.40625 L 345.519531 168.367188 L 345.414062 168.324219 L 345.316406 168.277344 L 345.121094 168.175781 L 345.027344 168.117188 L 344.9375 168.058594 L 344.847656 167.996094 L 344.761719 167.925781 L 344.679688 167.855469 L 344.597656 167.78125 L 344.523438 167.703125 L 344.445312 167.621094 L 344.304688 167.449219 L 344.238281 167.355469 L 344.171875 167.257812 L 344.109375 167.15625 L 344.050781 167.054688 L 343.992188 166.945312 L 343.9375 166.832031 L 343.886719 166.714844 L 343.835938 166.59375 L 343.789062 166.46875 L 343.746094 166.339844 L 343.703125 166.207031 L 343.664062 166.070312 L 345.175781 165.835938 L 345.226562 165.992188 L 345.285156 166.136719 L 345.347656 166.277344 L 345.414062 166.40625 L 345.488281 166.527344 L 345.566406 166.640625 L 345.652344 166.746094 L 345.742188 166.84375 L 345.835938 166.933594 L 345.9375 167.011719 L 346.046875 167.082031 L 346.160156 167.144531 L 346.28125 167.199219 L 346.40625 167.25 L 346.535156 167.289062 L 346.667969 167.324219 L 346.8125 167.347656 L 346.957031 167.367188 L 347.109375 167.378906 L 347.265625 167.382812 L 347.394531 167.378906 L 347.519531 167.371094 L 347.640625 167.355469 L 347.761719 167.332031 L 347.878906 167.308594 L 347.996094 167.273438 L 348.109375 167.234375 L 348.21875 167.191406 L 348.328125 167.140625 L 348.433594 167.082031 L 348.539062 167.019531 L 348.644531 166.949219 L 348.742188 166.871094 L 348.835938 166.789062 L 348.929688 166.699219 L 349.019531 166.605469 L 349.105469 166.503906 L 349.1875 166.398438 L 349.265625 166.285156 L 349.339844 166.167969 L 349.414062 166.042969 L 349.484375 165.914062 L 349.550781 165.777344 L 349.617188 165.632812 L 349.675781 165.484375 L 349.734375 165.328125 L 349.789062 165.167969 L 349.839844 165 L 349.886719 164.828125 L 349.929688 164.648438 L 349.96875 164.460938 L 350.003906 164.269531 L 350.039062 164.070312 L 350.066406 163.867188 L 350.089844 163.65625 L 350.113281 163.4375 L 350.128906 163.214844 L 350.144531 162.984375 L 350.152344 162.746094 L 350.15625 162.503906 L 350.121094 162.585938 L 350.035156 162.742188 L 349.988281 162.820312 L 349.886719 162.96875 L 349.832031 163.039062 L 349.773438 163.109375 L 349.648438 163.242188 L 349.449219 163.429688 L 349.378906 163.488281 L 349.308594 163.542969 L 349.234375 163.597656 L 349 163.75 L 348.917969 163.796875 L 348.835938 163.839844 L 348.753906 163.878906 L 348.582031 163.957031 L 348.496094 163.992188 L 348.226562 164.085938 L 348.132812 164.113281 L 347.945312 164.160156 L 347.847656 164.179688 L 347.660156 164.210938 L 347.464844 164.234375 L 347.371094 164.242188 L 347.273438 164.246094 L 347.179688 164.25 L 347.082031 164.253906 L 346.914062 164.25 L 346.75 164.242188 L 346.589844 164.226562 L 346.277344 164.179688 L 346.125 164.144531 L 345.976562 164.105469 L 345.832031 164.0625 L 345.691406 164.011719 L 345.550781 163.953125 L 345.417969 163.890625 L 345.289062 163.820312 L 345.164062 163.746094 L 345.042969 163.667969 L 344.925781 163.585938 L 344.8125 163.5 L 344.703125 163.40625 L 344.597656 163.308594 L 344.496094 163.207031 L 344.402344 163.101562 L 344.308594 162.988281 L 344.21875 162.875 L 344.136719 162.753906 L 344.054688 162.628906 L 343.980469 162.5 L 343.90625 162.367188 L 343.839844 162.230469 L 343.777344 162.089844 L 343.71875 161.941406 L 343.664062 161.792969 L 343.613281 161.636719 L 343.570312 161.476562 L 343.53125 161.3125 L 343.5 161.144531 L 343.472656 160.976562 L 343.449219 160.804688 L 343.429688 160.625 L 343.417969 160.445312 L 343.410156 160.265625 L 343.40625 160.078125 L 343.410156 159.886719 L 343.417969 159.703125 L 343.433594 159.519531 L 343.453125 159.339844 L 343.476562 159.164062 L 343.503906 158.996094 L 343.542969 158.828125 L 343.582031 158.664062 L 343.628906 158.503906 L 343.679688 158.347656 L 343.738281 158.195312 L 343.800781 158.046875 L 343.871094 157.902344 L 343.945312 157.765625 L 344.023438 157.632812 L 344.105469 157.503906 L 344.195312 157.378906 L 344.289062 157.261719 L 344.386719 157.144531 L 344.488281 157.035156 L 344.597656 156.929688 L 344.710938 156.828125 L 344.828125 156.734375 L 344.949219 156.640625 L 345.074219 156.554688 L 345.207031 156.472656 L 345.34375 156.398438 L 345.484375 156.328125 L 345.628906 156.261719 L 345.78125 156.203125 L 345.9375 156.148438 L 346.097656 156.097656 L 346.261719 156.054688 L 346.433594 156.015625 L 346.605469 155.984375 L 346.78125 155.957031 L 346.960938 155.9375 L 347.148438 155.921875 L 347.335938 155.914062 L 347.53125 155.910156 L 347.933594 155.925781 L 348.316406 155.972656 L 348.679688 156.050781 L 349.023438 156.15625 L 349.34375 156.292969 L 349.648438 156.460938 L 349.929688 156.660156 L 350.191406 156.890625 L 350.4375 157.148438 L 350.660156 157.441406 L 350.859375 157.761719 L 351.042969 158.113281 L 351.199219 158.496094 L 351.339844 158.910156 L 351.457031 159.355469 L 351.550781 159.828125 L 351.625 160.335938 L 351.679688 160.871094 L 351.710938 161.441406 Z M 350 160.507812 L 349.996094 160.371094 L 349.992188 160.238281 L 349.984375 160.105469 L 349.972656 159.972656 L 349.957031 159.84375 L 349.917969 159.585938 L 349.890625 159.460938 L 349.863281 159.339844 L 349.832031 159.214844 L 349.800781 159.097656 L 349.761719 158.980469 L 349.722656 158.867188 L 349.679688 158.757812 L 349.632812 158.648438 L 349.582031 158.546875 L 349.527344 158.445312 L 349.472656 158.347656 L 349.414062 158.253906 L 349.347656 158.160156 L 349.285156 158.074219 L 349.214844 157.988281 L 349.144531 157.910156 L 349.070312 157.835938 L 348.992188 157.761719 L 348.914062 157.695312 L 348.828125 157.628906 L 348.742188 157.566406 L 348.652344 157.511719 L 348.558594 157.457031 L 348.464844 157.410156 L 348.367188 157.363281 L 348.265625 157.324219 L 348.160156 157.289062 L 348.054688 157.261719 L 347.945312 157.238281 L 347.832031 157.21875 L 347.71875 157.207031 L 347.597656 157.199219 L 347.476562 157.195312 L 347.363281 157.195312 L 347.253906 157.203125 L 347.144531 157.214844 L 347.039062 157.226562 L 346.933594 157.246094 L 346.832031 157.269531 L 346.734375 157.292969 L 346.636719 157.324219 L 346.542969 157.359375 L 346.449219 157.398438 L 346.359375 157.4375 L 346.269531 157.484375 L 346.105469 157.585938 L 345.949219 157.703125 L 345.878906 157.765625 L 345.808594 157.832031 L 345.738281 157.902344 L 345.613281 158.050781 L 345.496094 158.214844 L 345.394531 158.386719 L 345.300781 158.574219 L 345.257812 158.675781 L 345.21875 158.777344 L 345.183594 158.882812 L 345.121094 159.101562 L 345.097656 159.214844 L 345.074219 159.332031 L 345.058594 159.449219 L 345.042969 159.570312 L 345.03125 159.691406 L 345.023438 159.820312 L 345.019531 159.945312 L 345.015625 160.078125 L 345.015625 160.203125 L 345.03125 160.445312 L 345.039062 160.5625 L 345.054688 160.679688 L 345.070312 160.792969 L 345.089844 160.910156 L 345.136719 161.128906 L 345.164062 161.238281 L 345.199219 161.34375 L 345.234375 161.445312 L 345.273438 161.546875 L 345.316406 161.644531 L 345.359375 161.738281 L 345.410156 161.832031 L 345.460938 161.917969 L 345.570312 162.089844 L 345.695312 162.246094 L 345.828125 162.386719 L 345.902344 162.453125 L 345.976562 162.515625 L 346.054688 162.578125 L 346.21875 162.6875 L 346.304688 162.738281 L 346.394531 162.785156 L 346.488281 162.828125 L 346.683594 162.898438 L 346.785156 162.925781 L 346.890625 162.949219 L 347 162.96875 L 347.109375 162.984375 L 347.222656 162.996094 L 347.339844 163.003906 L 347.546875 163.003906 L 347.636719 163 L 347.722656 162.992188 L 347.902344 162.96875 L 347.988281 162.949219 L 348.167969 162.910156 L 348.347656 162.855469 L 348.4375 162.824219 L 348.527344 162.789062 L 348.613281 162.75 L 348.695312 162.710938 L 348.78125 162.667969 L 348.859375 162.617188 L 348.941406 162.566406 L 349.015625 162.515625 L 349.164062 162.398438 L 349.238281 162.335938 L 349.375 162.199219 L 349.5 162.050781 L 349.558594 161.972656 L 349.613281 161.890625 L 349.664062 161.804688 L 349.714844 161.714844 L 349.761719 161.625 L 349.808594 161.527344 L 349.847656 161.429688 L 349.882812 161.324219 L 349.914062 161.21875 L 349.941406 161.109375 L 349.960938 160.996094 L 349.976562 160.878906 L 349.988281 160.757812 L 349.996094 160.636719 Z M 350 160.507812 "/>
</g>
</svg>
